<?xml version="1.0" encoding="utf-8"?>
<!-- Generator: Adobe Illustrator 27.3.1, SVG Export Plug-In . SVG Version: 6.00 Build 0)  -->
<svg version="1.1" id="Layer_1" xmlns="http://www.w3.org/2000/svg" xmlns:xlink="http://www.w3.org/1999/xlink" x="0px" y="0px"
	 viewBox="0 0 709 709" style="enable-background:new 0 0 709 709;" xml:space="preserve">
<style type="text/css">
	.st0{fill:#C6E5F1;}
	.st1{fill:#BDE9F6;}
	.st2{fill:#986C59;}
	.st3{fill:none;}
</style>
<path class="st0" d="M288.1,170.8c-0.4,0.7-0.9,1-1.6,0.8c-0.3-0.1-0.5-0.3-0.6-0.6l-1.1-4.5c-0.1-0.4,0-0.7,0.2-0.9
	c0.2-0.2,0.5-0.1,0.8,0.3c1,1.5,1.8,2.8,2.3,3.9C288.3,170.2,288.3,170.5,288.1,170.8z"/>
<path class="st1" d="M367.5,78.1c-46.1,0-88.1,18.9-118.5,49.3c-30.4,30.4-49.3,72.4-49.3,118.5v254.2c0,46.1,18.9,88.1,49.3,118.5
	c30.4,30.4,72.4,49.3,118.5,49.3c46.1,0,88.1-18.9,118.5-49.3c30.4-30.4,49.3-72.4,49.3-118.5V245.9c0-46.1-18.9-88.1-49.3-118.5
	C455.6,96.9,413.6,78.1,367.5,78.1"/>
<g>
	<path class="st2" d="M312.5,372.8h5.5c-1.4-1-2.3-2.6-2.7-4.6C314.8,370.2,313.9,371.8,312.5,372.8"/>
	<path class="st2" d="M313.2,275.1c0.4,0.1,0.9,0.2,1.5,0.6v-1.3l3.1,5.7c1,1.8,2.3,4.4,4.3,8.8l25.9,55.9v-9.8l-29.1-62.7
		L313.2,275.1z"/>
	<rect x="391.2" y="275" class="st2" width="3.5" height="97.8"/>
	<path class="st2" d="M343.3,393.1h68.6c5,0,8.2,1.9,9.8,5.9v-27.6c-1.4,15.5-6,21.3-15.5,21.3h-48.3V204.3h8.1v-0.4h-22.7v0.4h8.1
		v188.4h-8.1V393.1z"/>
	<path class="st2" d="M389.8,372.8h-5.9v1.4H402v-1.4h-6V275h6.1l-0.1-1.4h-12.4l-29.8,67.8v4.2l29.9-67.8V372.8z M391.2,275h3.5
		v97.8l-3.5,0V275z"/>
	<path class="st2" d="M350,335.8v16.4v1.3v37.7h-8.1v3.2h70.1c6.4,0,8.2,3.6,9,6.5h2.2v-42.5h-2.3c0,27.5-5.4,32.9-14.6,32.9h-46.9
		v-43.1l0.5-1.3v-1.4l-0.5,1.3v-4.2l0.5-1.3V340l-0.5,1.3V205.7h8.1v-3.2h-25.5v3.2h8.1v128.8l-0.6-1.2v1.3L350,335.8z M351.4,392.7
		V204.3h-8.1v-0.4H366v0.4h-8.1v188.4h48.3c9.5,0,14-5.8,15.5-21.3V399c-1.6-4-4.9-5.9-9.8-5.9h-68.7v-0.4H351.4z"/>
	<path class="st2" d="M319.6,270.3l-12,6.2l0.5,1.1c1.7-0.7,2.7-1.1,4.4-1.1c0.5,0,1.1,0.1,1.8,0.7l0.1,0.1v84.4
		c0,8.5-1.6,11.1-7.2,11.1v1.4h16.2v-1.4c-5.7-0.1-7.2-2.5-7.2-11.1v-81.9l0.5,0.9c1,1.7,2.2,4.3,4.3,8.7l28.5,61.6v-16.4
		L319.6,270.3z M318,372.8h-5.5c1.4-1,2.3-2.6,2.8-4.6C315.7,370.2,316.5,371.8,318,372.8 M348,344.7l-25.9-55.9
		c-2-4.4-3.3-7-4.3-8.8l-3.1-5.7v1.3c-0.5-0.4-1.1-0.5-1.5-0.6l5.7-2.9l29.1,62.7V344.7z"/>
	<path class="st2" d="M418.9,358.2c0,28.9-5.7,31.2-12.6,31.2h-45v-42.1l26.5-60.2v83.8h-5.9v5.3H404v-5.3h-6V277h6.2l-0.3-5.3
		h-12.7v-0.5l-0.2,0.5h-2.5l-27.1,61.7V207.7h8.1v-7.1h-29.4v7.1h8.1V327l-26.8-57.8l-0.7-1.6l-15.5,7.9l2.1,4.5l1.5-0.7
		c1.7-0.7,2.5-1,3.8-1v83.2c0,8.8-1.7,9.2-5.6,9.2h-1.7v5.3h20.1v-5.3h-1.7c-4,0-5.6-0.4-5.6-9.2V288c0.3,0.7,0.7,1.4,1,2.2
		l28.9,62.4v36.7h-8.1v7.1h72c5.8,0,6.7,3.5,7.2,5.2l0.3,1.3h5.7v-46.5h-6.2V358.2z M420.3,357.9h3.4v43.7h-3.2l0-0.2
		c-0.5-1.7-1.6-6.3-8.5-6.3h-70.6v-4.3h8.1v-38.4l-29-62.7c-1.7-3.6-2.8-6-3.7-7.7v79.7c0,9.1,1.7,10.6,7,10.6h0.3v2.5h-17.3v-2.5
		h0.3c5.1,0,7-1.6,7-10.6v-84.2c-0.5-0.4-1-0.5-1.4-0.5c-1.7,0-2.7,0.3-4.4,1.1l-0.3,0.1l-1-2l0.2-0.1l12.8-6.5l0.1,0.3l29.5,63.5
		v-127h-8.1V202H368v4.3h-8.1V340l29.4-66.9h13.3l0.1,2.5h-6.1v96.7h6v2.5h-19.3v-2.5h5.9v-91.8L359.9,347v43.8h46.4
		c9.1,0,14-5.2,14-32.6V357.9z"/>
	<polygon class="st2" points="359.3,342.7 359.3,346.9 359.9,345.6 359.9,341.4 	"/>
	<polygon class="st2" points="349.4,334.6 349.4,351.1 350,352.3 350,335.8 	"/>
	<polygon class="st2" points="389.7,273.6 402.1,273.6 402.1,275 396,275 396,372.8 402,372.8 402,374.2 383.9,374.2 383.9,372.8 
		389.8,372.8 389.8,277.8 359.9,345.6 359.9,347 389.2,280.5 389.2,372.2 383.3,372.2 383.3,374.8 402.6,374.8 402.6,372.2 
		396.6,372.2 396.6,275.6 402.7,275.6 402.6,273 389.3,273 359.9,340 359.9,341.4 	"/>
	<polygon class="st2" points="350,352.3 349.4,351.1 349.4,352.4 350,353.6 	"/>
	<path class="st2" d="M406.3,390.8h-46.4V347l-0.6,1.3v43.1h46.9c9.2,0,14.6-5.4,14.6-32.9h2.3V401h-2.2c-0.8-2.9-2.6-6.5-9-6.5h-70
		v-3.2h8.1v-37.7l-0.6-1.2v38.4h-8.1v4.3h70.6c6.9,0,8.1,4.6,8.5,6.3l0,0.2h3.2v-43.7h-3.4v0.3C420.3,385.6,415.4,390.8,406.3,390.8
		"/>
	<path class="st2" d="M320.9,289.4c-2-4.4-3.3-7-4.3-8.7l-0.5-1v81.9c0,8.6,1.6,11.1,7.2,11.1v1.4h-16.2v-1.4
		c5.6-0.1,7.2-2.6,7.2-11.1v-84.4l-0.1-0.1c-0.7-0.6-1.3-0.7-1.8-0.7c-1.7,0-2.7,0.3-4.4,1.1l-0.5-1.1l12-6.2l29.9,64.3v-1.3
		l-29.5-63.5l-0.1-0.3l-12.8,6.5l-0.2,0.1l1,2l0.3-0.1c1.8-0.8,2.8-1.1,4.4-1.1c0.4,0,0.8,0.1,1.4,0.5v84.2c0,9-1.8,10.6-7,10.6
		h-0.3v2.5h17.3v-2.5h-0.3c-5.2,0-7-1.5-7-10.6V282c0.9,1.7,2,4.1,3.7,7.7l29,62.7v-1.3L320.9,289.4z"/>
	<polygon class="st2" points="350,205.7 341.9,205.7 341.9,202.5 367.4,202.5 367.4,205.7 359.3,205.7 359.3,341.3 359.9,340 
		359.9,206.3 368,206.3 368,202 341.3,202 341.3,206.3 349.4,206.3 349.4,333.3 350,334.5 	"/>
</g>
<path class="st2" d="M367.5,65c-49.7,0-95,20.4-127.8,53.1c-32.8,32.8-53.1,78-53.1,127.8v254.2c0,49.8,20.4,95,53.1,127.8
	c32.8,32.8,78,53.1,127.8,53.1c49.8,0,95-20.3,127.8-53.1c32.8-32.8,53.1-78,53.1-127.8V245.9c0-49.7-20.4-95-53.1-127.8
	C462.4,85.3,417.2,65,367.5,65 M535.3,500.1c0,46.2-18.9,88.1-49.3,118.5c-30.4,30.4-72.4,49.3-118.5,49.3
	c-46.1,0-88.1-18.9-118.5-49.3c-30.4-30.4-49.3-72.4-49.3-118.5V245.9c0-46.1,18.9-88.1,49.3-118.5c30.4-30.4,72.4-49.3,118.5-49.3
	c46.1,0,88.1,18.9,118.5,49.3c30.4,30.4,49.3,72.4,49.3,118.5V500.1z"/>
<path class="st2" d="M292.8,150.9c0.1,0.1,0,0.2-0.3,0.4l-0.2,0.1c-0.2,0.1-0.5,0.3-0.9,0.6c-0.4,0.3-0.8,0.5-1,0.6
	c-0.4,0.2-0.8,0.5-1.3,0.8c-0.5,0.3-0.8,0.5-1,0.6l-0.1,0.1c-0.3,0.1-0.4,0.2-0.5,0.1c-0.1-0.1,0.1-0.3,0.4-0.5c0.6-0.4,1-0.7,1-0.9
	c0-0.1-0.2-0.5-0.7-1.3l-5.8-9.3c0,0,0.1,0.3,0.2,0.8c0.4,1.7,1,4.3,1.9,7.8l0.9,3.4c0.2,0.7,0.2,1,0.2,1.1c-0.1,0-0.3,0-0.5-0.3
	c-1-0.9-3.7-3-8-6.4l-1.9-1.5c0.2,0.2,0.3,0.5,0.6,0.9l3.6,5.8c1.3,2.2,2.1,3.3,2.1,3.3c0.2,0.1,0.5,0,1-0.3
	c0.4-0.2,0.7-0.3,0.7-0.2c0.1,0.1,0,0.3-0.3,0.4c-0.2,0.1-0.3,0.2-0.5,0.2c-0.2,0.1-0.3,0.2-0.5,0.2l-2.1,1.3
	c-0.2,0.1-0.4,0.1-0.4,0c-0.1-0.1,0.2-0.4,0.9-0.8c0.3-0.2,0.4-0.3,0.4-0.4c0-0.1-0.2-0.5-0.5-1l-5.3-8.6c-0.6-1-1-1.5-1-1.6
	c-0.2-0.1-0.3-0.2-0.5-0.2c-0.2,0-0.6,0.2-1.1,0.5c-0.2,0.1-0.3,0.1-0.4,0c-0.1-0.1,0.1-0.3,0.4-0.5c0,0,0.2-0.1,0.3-0.2l1-0.6
	c0.7-0.4,1.2-0.7,1.5-0.9c0.2,0.1,1.1,0.9,2.8,2.2c0.7,0.6,2.8,2.2,6.2,4.9c-0.2-0.9-0.5-1.8-0.7-2.7l-1.7-7.1
	c-0.1-0.4-0.2-0.8-0.2-1l2.7-1.6c0.4-0.2,0.6-0.4,0.7-0.4c0.1,0,0.1,0,0.2,0.1c0.1,0.1,0,0.2-0.2,0.4c-0.3,0.2-0.6,0.4-0.7,0.4
	c-0.3,0.2-0.4,0.4-0.4,0.6c0,0.1,0.4,0.8,1.2,2.2l5.2,8.4c0.3,0.5,0.5,0.7,0.7,0.8c0.2,0,0.7-0.2,1.3-0.5l0.1-0.1
	C292.6,150.8,292.8,150.8,292.8,150.9 M300.6,146.2c0.1,0.2,0,0.5-0.3,1c-0.3,0.5-0.7,0.8-1.1,1c-0.9,0.4-1.6,0.2-2.1-0.6
	c0,1.2-0.5,2-1.5,2.5c-0.5,0.3-1.1,0.3-1.6,0.2c-0.5-0.1-0.9-0.5-1.2-1c-0.5-1-0.3-2.1,0.6-3.4c0.3-0.4,1-1,1.9-1.7l-0.2-0.5
	c-0.6-1.1-1-1.8-1.3-2.1c-0.5-0.5-1.2-0.6-1.9-0.3c-0.4,0.2-0.8,0.5-0.9,0.9c-0.2,0.4-0.2,0.8,0,1.1c0,0.1,0.2,0.1,0.3,0
	c0.2-0.1,0.3-0.1,0.5,0c0.2,0.1,0.4,0.2,0.5,0.4c0.3,0.5,0.2,1-0.4,1.2c-0.3,0.1-0.6,0.2-0.9,0.1c-0.3-0.1-0.5-0.3-0.7-0.6
	c-0.3-0.6-0.3-1.2-0.1-1.9c0.3-0.7,0.9-1.3,1.8-1.8c1.4-0.7,2.5-0.8,3.2-0.2c0.3,0.2,0.6,0.8,1.1,1.6l1.8,3.5c0.3,0.6,0.5,0.9,0.5,1
	c0.3,0.4,0.6,0.5,0.9,0.4c0.4-0.2,0.6-0.4,0.7-0.8c0.1-0.2,0.1-0.3,0.2-0.3C300.5,146.1,300.6,146.1,300.6,146.2 M296.3,145.9
	l-0.7-1.4c-0.8,0.7-1.4,1.3-1.6,1.8c-0.2,0.5-0.2,1.1,0.1,1.7c0.2,0.4,0.5,0.7,0.9,0.8c0.4,0.1,0.7,0.1,1.1-0.1
	c0.5-0.3,0.8-0.8,0.8-1.5C296.8,147.1,296.6,146.6,296.3,145.9 M297.9,134c0.3,0.6,0.1,1-0.5,1.3c-0.2,0.1-0.5,0.1-0.7,0
	c-0.3-0.1-0.4-0.2-0.5-0.5c-0.3-0.6-0.1-1,0.4-1.3C297.2,133.2,297.6,133.4,297.9,134 M305,145.2c0.1,0.1,0,0.2-0.3,0.3
	c0,0-0.1,0.1-0.5,0.2c-0.4,0.2-0.7,0.3-1,0.4l-2,0.9c0,0.1-0.1,0.1-0.2,0.2c-0.2,0.1-0.2,0-0.3,0c-0.1-0.1,0-0.3,0.3-0.4
	c0.5-0.2,0.7-0.4,0.8-0.5c0-0.1-0.1-0.4-0.3-0.8l-2.7-5.8c-0.2-0.3-0.3-0.5-0.3-0.5c0,0-0.1,0-0.3,0l-0.6,0.3c0,0-0.1,0.1-0.2,0.1
	c-0.1,0.1-0.2,0.1-0.3,0c0-0.1,0.1-0.2,0.3-0.3c0.8-0.4,1.5-1,1.9-1.6l0.1-0.2c0.2,0.1,0.4,0.5,0.6,1c0,0,0,0,0.1,0.2
	c0.1,0.2,0.2,0.4,0.3,0.7l2.4,5.2c0.2,0.5,0.4,0.8,0.5,0.9c0.1,0.1,0.2,0.1,0.3,0.1c0.2,0,0.5-0.1,0.9-0.3
	C304.8,145,304.9,145.1,305,145.2 M310.7,140c0.3,0.8,0.3,1.5,0,2.3c-0.3,0.8-0.9,1.3-1.7,1.6c-0.4,0.2-1.1,0.2-1.8,0.2
	c-0.2,0-0.4,0-0.5,0.1c-0.2,0.1-0.3,0.3-0.3,0.5c0,0.2,0,0.3-0.1,0.3c-0.1,0-0.2,0-0.2-0.1c0-0.1-0.1-0.1-0.1-0.2
	c-0.1-0.3-0.3-0.6-0.5-1.1c0,0-0.1-0.2-0.2-0.5c-0.1-0.3-0.2-0.4-0.2-0.5l-0.1-0.2c-0.1-0.1,0-0.2,0-0.3c0.1,0,0.2,0,0.3,0.1
	c0.3,0.6,0.7,1,1.1,1.2c0.8,0.5,1.7,0.5,2.5,0.1c0.5-0.2,0.8-0.5,1-0.9c0.2-0.4,0.2-0.8,0-1.3c-0.2-0.5-0.5-0.8-1-1
	c-0.3-0.1-0.5-0.1-0.7-0.2c-0.2,0-0.7,0-1.5,0c-1.7,0.1-2.8-0.5-3.2-1.6c-0.3-0.7-0.3-1.4,0-2.1c0.3-0.7,0.8-1.2,1.5-1.5
	c0.3-0.1,0.7-0.2,1.3-0.2c0.2,0,0.3,0,0.4-0.1c0.3-0.1,0.4-0.3,0.3-0.6c0-0.1,0-0.2,0.1-0.3c0.1,0,0.2,0,0.2,0.1c0,0,0,0.1,0,0.1
	l0.4,0.8c0.1,0.3,0.4,0.8,0.7,1.5l0,0c0,0.1,0,0.2-0.1,0.2c-0.1,0-0.2-0.1-0.5-0.5c-0.3-0.4-0.8-0.7-1.2-0.8c-0.5-0.1-1-0.1-1.4,0.1
	c-0.4,0.2-0.8,0.5-0.9,0.9c-0.2,0.4-0.2,0.8,0,1.2c0.3,0.6,0.9,1,1.9,0.9c1.6,0,2.7,0.1,3.2,0.3C310,138.9,310.4,139.4,310.7,140
	 M319.6,134.9c0.5,1.3,0.4,2.5,0,3.6c-0.5,1.1-1.3,1.9-2.5,2.3c-1.2,0.4-2.4,0.3-3.5-0.2c-1.1-0.6-1.9-1.5-2.4-2.8
	c-0.5-1.3-0.5-2.6,0-3.7c0.5-1.1,1.3-1.9,2.5-2.3c1.2-0.4,2.4-0.3,3.5,0.3C318.4,132.7,319.1,133.6,319.6,134.9 M317.8,135.6
	c-0.5-1.4-1.2-2.5-1.9-3.1c-0.6-0.5-1.2-0.6-2-0.3c-0.8,0.3-1.2,0.8-1.4,1.7c-0.2,0.9,0,2,0.5,3.4c0.5,1.3,1.1,2.3,1.8,2.9
	c0.7,0.6,1.5,0.7,2.3,0.5c0.6-0.2,1-0.6,1.1-1.2C318.5,138.3,318.3,137.1,317.8,135.6 M331.5,136.3c0,0.1-0.1,0.2-0.3,0.2l-0.2,0.1
	c-0.3,0.1-0.6,0.2-1,0.3c-1.3,0.4-2.2,0.6-2.4,0.6l-0.1,0c-0.2,0-0.3,0-0.3-0.1c0-0.1,0-0.1,0.1-0.1c0.1,0,0.3-0.1,0.8-0.3
	c0.3-0.1,0.4-0.2,0.4-0.2c0-0.1,0-0.3-0.1-0.7l-1.1-3.9c-0.4-1.5-0.7-2.3-0.9-2.6c-0.4-0.5-1-0.7-1.7-0.5c-0.7,0.2-1.2,0.6-1.5,1.4
	c-0.1,0.2-0.1,0.5,0,0.8l1.8,6.3c0.1,0.2,0.2,0.2,0.5,0.1l0.6-0.1c0.1,0,0.2,0,0.3,0.1c0,0.1,0,0.2-0.2,0.2l-0.3,0.1
	c-0.3,0.1-0.8,0.2-1.4,0.4c-0.1,0-0.5,0.1-1,0.3c-0.5,0.1-0.8,0.2-0.9,0.2l-0.1,0c-0.2,0.1-0.3,0-0.3,0c0-0.1,0.1-0.2,0.3-0.3
	c0.2,0,0.3-0.1,0.5-0.1c0.2-0.1,0.3-0.1,0.3-0.2l0-0.3l-1.2-4.4c-0.4-1.5-0.7-2.4-0.8-2.5c-0.1-0.2-0.3-0.2-0.6-0.1
	c-0.1,0-0.3,0.1-0.5,0.1l-0.1,0c-0.3,0.1-0.4,0.1-0.5,0c0-0.1,0.1-0.2,0.4-0.3c0.4-0.1,0.8-0.3,1.3-0.6c0.4-0.3,0.7-0.5,0.9-0.7
	c0.1-0.1,0.2-0.2,0.3-0.2c0.1,0,0.2,0.1,0.2,0.3l0.3,1c0.5-1.1,1.3-1.8,2.4-2.1c1-0.3,1.8-0.1,2.4,0.5c0.4,0.3,0.7,1.1,1,2.2
	l1.3,4.6c0.1,0.4,0.2,0.7,0.3,0.7c0.1,0.1,0.3,0,0.6,0c0,0,0.1,0,0.2-0.1l0.1,0C331.4,136.2,331.5,136.2,331.5,136.3 M340.4,121.3
	c0,0.3,0,0.5-0.1,0.8c-0.1,0.2-0.3,0.4-0.6,0.4c-0.3,0-0.5,0-0.7-0.1c-0.2-0.1-0.4-0.3-0.4-0.6c0-0.2,0-0.5,0.1-0.8
	c0-0.1,0-0.1,0-0.2c-0.1-0.3-0.3-0.4-0.8-0.3c-0.8,0.1-1.2,0.7-1.3,1.8c0,0.5,0.1,1.5,0.3,2.8l0.2,1l1.4-0.3c0.3,0,0.4,0,0.4,0.1
	c0,0.1-0.1,0.2-0.5,0.3l-1.3,0.2l1.5,8.1c0,0.2,0.2,0.3,0.6,0.2c0.6-0.1,0.9-0.2,1-0.1c0,0,0,0,0,0.1c0,0.1-0.1,0.2-0.2,0.2
	c-0.1,0-0.2,0-0.2,0l-1.7,0.3l-2.3,0.4c-0.3,0-0.4,0-0.4-0.1c0-0.1,0.1-0.2,0.3-0.2c0.7-0.1,1.1-0.2,1.2-0.3c0,0,0-0.1,0-0.1
	l-0.1-0.3l-1.5-7.8c-0.5,0.1-0.8,0.1-0.9,0.1c-0.1,0-0.1,0-0.2-0.1c0-0.1,0.1-0.2,0.4-0.3l0.7-0.1c-0.3-1.8-0.3-3.1,0-3.9
	c0.4-1.3,1.3-2.1,2.6-2.3c0.6-0.1,1.2-0.1,1.6,0.2C340,120.5,340.3,120.8,340.4,121.3 M349.5,128.9c0.2,1.3-0.1,2.5-0.8,3.5
	c-0.7,1-1.7,1.6-2.9,1.7c-1.3,0.2-2.4-0.2-3.4-1c-1-0.8-1.6-1.9-1.7-3.2c-0.2-1.4,0.1-2.6,0.8-3.6c0.7-1,1.7-1.6,3-1.8
	c1.3-0.2,2.4,0.2,3.4,1C348.8,126.5,349.4,127.6,349.5,128.9 M347.6,129.1c-0.2-1.5-0.6-2.7-1.2-3.5c-0.4-0.6-1.1-0.8-1.9-0.7
	c-0.8,0.1-1.4,0.6-1.7,1.4c-0.4,0.9-0.4,2-0.2,3.4c0.2,1.4,0.5,2.5,1.1,3.2c0.6,0.7,1.3,1,2.1,0.9c0.7-0.1,1.1-0.4,1.4-0.9
	C347.7,132,347.8,130.7,347.6,129.1 M360.9,132.8c0,0.1-0.1,0.2-0.3,0.2l-0.3,0c-0.3,0-0.6,0-1,0c-1.4,0.1-2.2,0.1-2.5,0.1l-0.1,0
	c-0.2,0-0.3,0-0.3-0.1c0-0.1,0-0.1,0.1-0.1c0.1,0,0.4,0,0.8-0.1c0.3,0,0.4-0.1,0.5-0.1c0-0.1,0.1-0.3,0-0.7l-0.2-4
	c-0.1-1.5-0.2-2.4-0.3-2.7c-0.3-0.6-0.8-0.9-1.5-0.9c-0.7,0-1.3,0.4-1.8,1c-0.1,0.2-0.2,0.4-0.2,0.8l0.3,6.5c0,0.2,0.2,0.3,0.5,0.3
	l0.7,0c0.1,0,0.2,0,0.2,0.1c0,0.1-0.1,0.2-0.3,0.2l-0.3,0c-0.3,0-0.8,0-1.5,0.1c-0.2,0-0.5,0-1,0c-0.5,0-0.8,0-0.9,0l-0.1,0
	c-0.2,0-0.3,0-0.3-0.1c0-0.1,0.1-0.1,0.4-0.2c0.2,0,0.4,0,0.5,0c0.2,0,0.4-0.1,0.4-0.2l0.1-0.3l-0.2-4.5c-0.1-1.6-0.1-2.5-0.2-2.6
	c0-0.2-0.2-0.2-0.5-0.2c-0.1,0-0.3,0-0.5,0l-0.1,0c-0.3,0-0.4,0-0.4-0.1c0-0.1,0.1-0.2,0.5-0.2c0.4,0,0.9-0.1,1.4-0.3
	c0.5-0.2,0.8-0.3,1-0.5c0.1-0.1,0.2-0.2,0.3-0.2c0.1,0,0.2,0.1,0.2,0.4l0.1,1c0.7-1,1.6-1.5,2.8-1.5c1,0,1.8,0.3,2.3,1
	c0.3,0.4,0.4,1.2,0.5,2.4l0.2,4.8c0,0.4,0.1,0.7,0.1,0.7c0.1,0.1,0.3,0.1,0.6,0.1c0,0,0.1,0,0.2,0l0.2,0
	C360.8,132.6,360.9,132.7,360.9,132.8 M370.9,132.8c0,0.1-0.1,0.1-0.3,0.1h-0.1c-0.1,0-0.2,0-0.4,0l-0.2,0c-0.7,0-1.3,0.1-1.8,0.3
	c-0.2,0.1-0.3,0.2-0.4,0.2c-0.1,0-0.2-0.1-0.2-0.3l0.1-0.6c-0.6,0.6-1.4,0.9-2.2,0.8c-1.2,0-2.2-0.5-2.9-1.5c-0.7-0.9-1.1-2.1-1-3.5
	c0.1-1.4,0.5-2.6,1.3-3.5c0.8-0.9,1.8-1.3,3.1-1.2c1,0,1.7,0.4,2.2,1.1l0.1-3.3c0-1.1,0-1.7-0.1-2c-0.1-0.2-0.2-0.3-0.4-0.3
	c-0.4,0-0.6,0-0.7,0c-0.2,0-0.3-0.1-0.3-0.2c0-0.1,0.1-0.2,0.2-0.2l0.8,0c0.4,0,1.1-0.1,2-0.5c0,0,0.1,0,0.1,0
	c0.1,0,0.2,0.2,0.2,0.5c0,0.1,0,0.2,0,0.4c0,0.2,0,0.4,0,0.6l-0.3,7.2c-0.1,3.3-0.2,5.1-0.1,5.3c0,0.1,0.4,0.2,1,0.2
	C370.8,132.7,370.9,132.7,370.9,132.8 M367.9,127.5c0-1.3-0.1-2.2-0.4-2.6c-0.4-0.5-0.8-0.7-1.5-0.8c-0.8,0-1.4,0.3-1.9,1.1
	c-0.5,0.8-0.8,1.8-0.8,3.1c0,1.3,0.1,2.3,0.5,3.2c0.2,0.4,0.4,0.7,0.7,1c0.3,0.3,0.7,0.4,1,0.4c0.4,0,0.8-0.1,1.2-0.3
	c0.4-0.2,0.6-0.6,0.7-0.9C367.8,131.3,367.9,129.9,367.9,127.5 M379.4,131.9c0,0.1-0.2,0.4-0.4,0.7c-0.3,0.3-0.5,0.6-0.8,0.8
	c-0.7,0.5-1.5,0.8-2.5,0.7c-1.3-0.1-2.3-0.7-3.1-1.7c-0.8-1-1.1-2.2-0.9-3.5c0.2-1.4,0.7-2.5,1.6-3.3c0.9-0.8,2-1.2,3.2-1.1
	c1,0.1,1.8,0.5,2.4,1.1c0.6,0.7,0.9,1.4,0.8,2.3c-0.5,0-1.1,0-1.8-0.1l-1.5-0.2c-0.1,0-0.9-0.1-2.6-0.2c-0.1,0.5-0.2,0.9-0.3,1.3
	c-0.2,1.4,0,2.5,0.5,3.3c0.5,0.8,1.2,1.3,2.2,1.4c0.6,0.1,1,0,1.4-0.2c0.4-0.2,0.8-0.6,1.3-1.3c0.1-0.1,0.2-0.1,0.3-0.1
	C379.4,131.8,379.5,131.8,379.4,131.9 M378.1,127.5c0.1-1.7-0.4-2.6-1.5-2.7c-1.2-0.1-2,0.6-2.4,2.3L378.1,127.5z M379.9,120.3
	l-2.2,1.8c-1,0.8-1.5,1.2-1.6,1.2c-0.1,0-0.1,0-0.1-0.1c0,0,0-0.1,0.1-0.1c0.2-0.4,0.5-0.9,0.9-1.5l0.8-1.4l0.7,0.1c0,0,0.1,0,0.3,0
	c0.2,0,0.4,0,0.7,0.1L379.9,120.3z M388.4,133.5c0,0.1-0.2,0.4-0.5,0.7c-0.3,0.3-0.6,0.6-0.8,0.7c-0.7,0.5-1.6,0.7-2.6,0.5
	c-1.3-0.2-2.2-0.9-2.9-1.9c-0.7-1-0.9-2.2-0.6-3.5c0.3-1.4,0.9-2.5,1.9-3.2c1-0.8,2.1-1.1,3.3-0.8c1,0.2,1.8,0.6,2.4,1.3
	c0.6,0.7,0.8,1.5,0.6,2.4c-0.5,0-1.1-0.1-1.8-0.2l-1.5-0.3c-0.1,0-1-0.1-2.5-0.4c-0.2,0.4-0.3,0.9-0.3,1.3c-0.3,1.4-0.2,2.5,0.2,3.3
	c0.4,0.8,1.1,1.4,2.1,1.5c0.6,0.1,1,0.1,1.4-0.1c0.4-0.2,0.8-0.6,1.4-1.2c0.1-0.1,0.2-0.1,0.3-0.1
	C388.4,133.4,388.4,133.4,388.4,133.5 M387.4,129c0.3-1.7-0.2-2.6-1.3-2.8c-1.1-0.2-2,0.5-2.6,2.1L387.4,129z M401,136.9
	c0,0.1-0.2,0.3-0.5,0.6c-0.3,0.3-0.6,0.5-0.9,0.6c-0.8,0.4-1.6,0.5-2.6,0.2c-1.2-0.4-2.1-1.1-2.7-2.2c-0.6-1.1-0.7-2.3-0.3-3.6
	c0.4-1.3,1.1-2.3,2.2-3c1.1-0.7,2.2-0.8,3.4-0.5c1,0.3,1.7,0.8,2.2,1.5c0.5,0.7,0.6,1.6,0.4,2.4c-0.5-0.1-1-0.2-1.8-0.4l-1.4-0.4
	c-0.1,0-0.9-0.2-2.5-0.6c-0.2,0.4-0.4,0.8-0.5,1.2c-0.4,1.3-0.5,2.5-0.1,3.3c0.3,0.9,0.9,1.5,1.9,1.7c0.5,0.2,1,0.2,1.4,0
	c0.4-0.1,0.9-0.5,1.5-1.1c0.1-0.1,0.2-0.1,0.3-0.1C401,136.7,401.1,136.8,401,136.9 M400.5,132.3c0.4-1.6,0.1-2.6-1-2.9
	c-1.1-0.3-2,0.3-2.8,1.8L400.5,132.3z M410.4,142.6c0,0.1-0.2,0.1-0.4,0l-0.2-0.1c-0.2-0.1-0.6-0.2-1-0.4c-1.3-0.5-2.1-0.8-2.3-0.9
	l-0.1-0.1c-0.2-0.1-0.2-0.1-0.2-0.2c0-0.1,0.1-0.1,0.2-0.1c0.1,0,0.3,0.1,0.8,0.2c0.3,0.1,0.4,0.1,0.5,0.1c0.1,0,0.2-0.2,0.3-0.6
	l1.4-3.8c0.5-1.4,0.8-2.3,0.8-2.6c0-0.7-0.3-1.1-1-1.4c-0.7-0.2-1.3-0.2-2,0.2c-0.2,0.1-0.4,0.3-0.5,0.6l-2.3,6.1
	c-0.1,0.2,0,0.3,0.3,0.4l0.6,0.2c0.1,0.1,0.2,0.1,0.1,0.2c0,0.1-0.1,0.1-0.3,0l-0.3-0.1c-0.3-0.1-0.8-0.3-1.4-0.5
	c-0.2-0.1-0.5-0.2-1-0.3c-0.5-0.2-0.8-0.3-0.9-0.3l-0.1,0c-0.2-0.1-0.3-0.1-0.3-0.2c0-0.1,0.2-0.1,0.4,0c0.2,0.1,0.3,0.1,0.5,0.2
	c0.2,0.1,0.3,0.1,0.4,0l0.2-0.3l1.6-4.3c0.6-1.5,0.9-2.3,0.9-2.5c0-0.2-0.1-0.3-0.4-0.4c-0.1,0-0.3-0.1-0.5-0.2l-0.1,0
	c-0.3-0.1-0.4-0.2-0.3-0.3c0-0.1,0.2-0.1,0.5,0c0.4,0.1,0.9,0.2,1.4,0.3c0.5,0,0.9,0,1.2-0.1c0.2-0.1,0.3-0.1,0.3-0.1
	c0.1,0,0.1,0.2,0,0.4l-0.4,0.9c1-0.6,2.1-0.7,3.2-0.3c1,0.4,1.5,1,1.7,1.8c0.1,0.5-0.1,1.3-0.5,2.4l-1.7,4.5
	c-0.2,0.4-0.2,0.7-0.2,0.7c0.1,0.1,0.2,0.2,0.5,0.3c0.1,0,0.1,0,0.2,0.1l0.1,0C410.4,142.4,410.5,142.5,410.4,142.6 M425.1,145.2
	c0,0-0.1,0.1-0.2,0.3c-0.3,0.4-0.9,1.3-1.9,2.9l-0.1,0.2c-1.3-0.7-2.8-1.5-4.5-2.3c-0.9-0.4-1.8-0.8-2.6-1.2
	c-0.8-0.4-1.2-0.5-1.1-0.5c-0.3-0.2-0.5-0.3-0.4-0.4c0-0.1,0.5-0.3,1.5-0.5c2.2-0.5,3.9-1,5-1.5c1.9-0.8,3.3-2.2,4.3-4
	c0.6-1.3,0.9-2.4,0.7-3.3c-0.2-0.7-0.6-1.2-1.3-1.6c-0.7-0.4-1.4-0.4-2.1-0.2c-0.5,0.2-0.8,0.4-1,0.8c-0.1,0.2,0,0.4,0.3,0.6
	c0.9,0.5,1.1,1.1,0.8,1.8c-0.3,0.7-0.9,0.8-1.6,0.5c-0.5-0.2-0.8-0.6-0.9-1c-0.1-0.4-0.1-0.9,0.2-1.4c0.5-0.9,1.2-1.5,2.1-1.7
	c0.9-0.2,2-0.1,3.1,0.4c1.1,0.5,1.8,1.3,2.2,2.3c0.4,1.2,0.3,2.4-0.3,3.7c-0.7,1.4-1.8,2.4-3.4,3.1c-1.5,0.7-3.8,1.2-6.7,1.5
	c0.9,0.4,1.9,0.9,3.2,1.5c1.1,0.5,1.7,0.8,2,0.9c0.3,0.1,0.6,0.1,0.9,0.1c0.2,0,0.6-0.4,1.1-1c0.3-0.5,0.6-0.6,0.8-0.6
	C425.2,144.9,425.2,145,425.1,145.2 M436.6,148.2c-0.7,1.1-1.4,2-2.3,2.7c-0.9,0.8-1.8,1.3-2.7,1.5c-1,0.3-1.9,0.1-2.9-0.4
	c-1.3-0.7-2-2-2.1-3.7c-0.1-1.7,0.4-3.5,1.6-5.4c1.3-2.2,3-3.6,4.9-4.2c1.2-0.4,2.3-0.3,3.3,0.3c1.2,0.7,1.8,1.8,1.9,3.3
	C438.4,144.2,437.9,146.2,436.6,148.2 M435,146.4c1.1-1.8,1.8-3.4,2.1-4.8c0.2-1.1,0-1.8-0.8-2.3c-1.6-0.9-3.5,0.7-6,4.7
	c-2.6,4.2-3,6.8-1.4,7.7c0.8,0.4,1.7,0.1,2.8-0.9C432.7,150,433.8,148.5,435,146.4 M446.3,154.6c-0.7,1-1.5,1.9-2.5,2.6
	c-0.9,0.7-1.9,1.1-2.8,1.3c-1,0.2-2,0-2.8-0.6c-1.2-0.8-1.8-2.1-1.8-3.8c0-1.7,0.7-3.5,2-5.3c1.5-2.1,3.2-3.4,5.2-3.9
	c1.2-0.3,2.3-0.1,3.2,0.6c1.2,0.8,1.7,1.9,1.7,3.4C448.4,150.8,447.7,152.7,446.3,154.6 M444.8,152.7c1.2-1.7,2-3.3,2.4-4.6
	c0.3-1,0.1-1.8-0.7-2.3c-1.5-1-3.6,0.4-6.3,4.3c-2.8,4-3.5,6.6-1.9,7.6c0.7,0.5,1.7,0.3,2.8-0.7
	C442.2,156.1,443.4,154.7,444.8,152.7 M453.5,163.9c-0.9,1.1-2,1.6-3.5,1.6c-1,0-2-0.4-2.9-1.1c-1-0.8-1.7-1.6-2-2.6
	c-0.5-1.3-0.3-2.5,0.6-3.6c1.3-1.6,3-2,5.2-1.1l0.1-0.1c-0.5-0.7-0.8-1.4-0.9-2.2c0-0.7,0.2-1.4,0.7-2c0.7-0.9,1.5-1.3,2.6-1.4
	c1-0.1,2,0.2,3,1c0.9,0.6,1.4,1.4,1.6,2.2c0.3,1.2,0.1,2.2-0.6,3.1c-0.5,0.7-1.2,1.1-2,1.3c-0.8,0.2-1.5,0.1-2.2-0.2l0,0.1
	C454.7,160.6,454.8,162.3,453.5,163.9 M451.7,162.8c1.6-2,1.7-3.5,0.3-4.6c-0.7-0.5-1.4-0.7-2.2-0.5c-0.8,0.2-1.5,0.8-2.3,1.7
	c-0.7,0.9-1.1,1.8-1.2,2.7c0,0.8,0.3,1.5,1,2.1c0.6,0.5,1.2,0.6,1.7,0.5C449.9,164.5,450.8,163.9,451.7,162.8 M455.7,156.5
	c0.8-1,1.2-1.8,1.2-2.6c0-0.4-0.2-0.8-0.7-1.2c-1.1-0.8-2.3-0.3-3.6,1.4c-1.3,1.7-1.4,3-0.3,3.8c0.5,0.4,1,0.5,1.5,0.3
	C454.3,157.9,455,157.4,455.7,156.5"/>
<g>
	<rect x="305.1" y="525.1" class="st2" width="10" height="1.9"/>
	<path class="st2" d="M345.8,509.3c0,0.2-0.3,0.4-0.9,0.3H344h-0.7c-0.4,0-0.6,0.1-0.7,0.2c-0.1,0.1-0.1,0.5-0.1,1.2v20.9
		c0,1.3,0,2,0,2.3c0,0.2-0.1,0.3-0.2,0.3c-0.1,0-0.3-0.1-0.5-0.4l-4.6-6.8c-2.7-4-6-8.9-9.8-14.9v20.3c0,0.3,0.2,0.5,0.5,0.6
		c0.4,0.1,1.2,0.1,2.5,0.2c0.3,0,0.5,0.1,0.5,0.3c0,0.2-0.3,0.4-0.9,0.4c-0.2,0-0.9,0-2.1-0.1c-0.4,0-0.8,0-1.1,0c0,0-0.2,0-0.6,0.1
		s-1.1,0.1-2.1,0.1h-0.4c-0.6,0-0.8-0.1-0.8-0.3c0-0.2,0.2-0.3,0.7-0.3c1.4,0,2.3-0.1,2.5-0.3c0.2-0.2,0.4-0.7,0.4-1.5v-17.9
		c0-2-0.4-3.3-1.2-3.8c-0.4-0.2-1.1-0.4-2.1-0.4c-0.6,0-0.9-0.1-0.9-0.4c0-0.2,0.2-0.3,0.5-0.3c0.5,0,1.1,0,1.9,0.1
		c0.7,0.1,1.1,0.1,1.2,0.1c0.1,0,0.4,0,1,0c0.8,0,1.6,0,2.3-0.1l12.5,18.7v-16.2c0-0.8,0-1.2,0-1.4c0-0.2-0.1-0.3-0.3-0.4
		c-0.2-0.1-0.8-0.1-1.7-0.1c-0.9,0-1.3-0.1-1.3-0.3c0-0.2,0.3-0.4,0.9-0.4h1.3h1h0.7h0.7h1.1h1.1C345.5,508.9,345.8,509,345.8,509.3
		"/>
	<path class="st2" d="M361.8,532.5c0,0.4-0.4,0.8-1.3,1.3c-0.9,0.5-1.7,0.7-2.5,0.7c-1.7,0-2.5-0.9-2.6-2.6
		c-0.9,1.8-2.3,2.7-4.3,2.7c-1,0-1.9-0.3-2.6-0.9c-0.7-0.6-1-1.4-1-2.4c0-2,1.2-3.6,3.6-4.7c0.8-0.4,2.2-0.8,4.2-1.2v-0.9
		c0-2.1-0.1-3.5-0.3-4.2c-0.4-1.2-1.3-1.9-2.6-1.9c-0.8,0-1.6,0.2-2.1,0.7c-0.6,0.5-0.9,1-0.9,1.7c0,0.2,0.2,0.3,0.5,0.3
		c0.3,0,0.6,0.1,0.8,0.4c0.2,0.3,0.4,0.6,0.4,1c0,1.1-0.5,1.6-1.6,1.6c-0.5,0-1-0.2-1.4-0.6c-0.4-0.4-0.5-0.9-0.5-1.4
		c0-1.1,0.4-2.1,1.3-2.9c1-0.9,2.4-1.3,4.1-1.3c2.7,0,4.3,0.7,4.9,2.2c0.2,0.6,0.3,1.7,0.3,3.3v6.8c0,1.1,0,1.8,0,2
		c0.1,0.9,0.5,1.3,1.1,1.3c0.7,0,1.2-0.2,1.7-0.7c0.2-0.3,0.4-0.4,0.5-0.4C361.8,532.3,361.8,532.4,361.8,532.5 M355.4,528.7V526
		c-1.8,0.4-3.1,1-3.8,1.6c-0.8,0.7-1.2,1.6-1.2,2.7c0,0.8,0.2,1.4,0.7,1.9c0.4,0.5,1,0.7,1.7,0.7c1,0,1.9-0.6,2.5-1.7
		C355.3,531,355.4,530.1,355.4,528.7"/>
	<path class="st2" d="M378,533.5c0,0.2-0.2,0.3-0.5,0.3h-0.2h-0.6h-0.3c-1.2,0-2.2,0.2-3,0.7c-0.3,0.2-0.5,0.3-0.6,0.3
		c-0.2,0-0.3-0.2-0.3-0.4l0-1.1c-1,1-2.3,1.6-3.7,1.6c-2,0-3.7-0.8-5-2.4c-1.3-1.6-2-3.6-2-6c0-2.5,0.7-4.5,2-6.1
		c1.3-1.6,3-2.3,5.2-2.3c1.6,0,2.9,0.6,3.7,1.8V514c0-1.8-0.1-3-0.2-3.4c-0.1-0.4-0.4-0.5-0.6-0.5c-0.7,0.1-1.1,0.1-1.3,0.1
		c-0.3,0-0.5-0.1-0.5-0.3c0-0.2,0.1-0.3,0.4-0.3l1.3,0c0.7,0,1.8-0.3,3.3-1c0.1,0,0.2-0.1,0.3-0.1c0.2,0,0.4,0.3,0.4,0.9v0.8v1v12.5
		c0,5.7,0,8.8,0.1,9.2c0,0.2,0.6,0.3,1.7,0.3C377.9,533.2,378,533.3,378,533.5 M372.6,524.3c0-2.3-0.2-3.8-0.8-4.5
		c-0.7-0.8-1.5-1.2-2.5-1.2c-1.3,0-2.3,0.7-3.1,2c-0.8,1.4-1.2,3.2-1.2,5.5c0,2.2,0.3,4,1,5.6c0.3,0.7,0.7,1.2,1.3,1.6
		c0.6,0.4,1.2,0.6,1.8,0.6c0.8,0,1.4-0.2,2-0.7s1-1,1.2-1.6C372.6,531,372.6,528.6,372.6,524.3"/>
	<path class="st2" d="M394.3,526.3c0,2.4-0.7,4.3-2.1,5.9c-1.4,1.6-3.2,2.4-5.3,2.4c-2.2,0-4-0.8-5.5-2.4c-1.5-1.6-2.2-3.6-2.2-5.9
		c0-2.4,0.7-4.4,2.2-6c1.4-1.6,3.2-2.4,5.4-2.4c2.2,0,4,0.8,5.5,2.4C393.6,521.9,394.3,523.9,394.3,526.3 M391,526.3
		c0-2.7-0.4-4.7-1.2-6.2c-0.6-1.1-1.6-1.6-3.1-1.6c-1.4,0-2.4,0.7-3.2,2.1c-0.8,1.4-1.1,3.3-1.1,5.8c0,2.4,0.4,4.4,1.2,5.7
		c0.8,1.4,1.9,2.1,3.4,2.1c1.1,0,1.9-0.4,2.5-1.3C390.5,531.2,391,529.1,391,526.3"/>
	<path class="st2" d="M407.6,520.4c0,0.6-0.2,1-0.5,1.4c-0.3,0.4-0.8,0.5-1.3,0.5c-0.4,0-0.8-0.1-1.1-0.4c-0.3-0.3-0.4-0.6-0.4-1
		c0-0.3,0.1-0.6,0.3-0.9c0.2-0.2,0.3-0.4,0.3-0.5c0-0.4-0.3-0.5-0.8-0.5c-0.7,0-1.3,0.4-1.7,1.3c-0.6,1-0.8,2.8-0.8,5.5v7.2
		c0,0.3,0.1,0.5,0.3,0.5c0.2,0.1,0.8,0.1,1.9,0.1c0.3,0,0.4,0.1,0.4,0.3c0,0.2-0.2,0.3-0.5,0.3h-1.6h-2.8h-1.5h-1.2
		c-0.4,0-0.6-0.1-0.6-0.2c0-0.2,0.2-0.2,0.5-0.2h0.5c0.8,0,1.3-0.1,1.5-0.3c0-0.1,0.1-0.5,0.1-1.4v-10c0-1.3-0.2-2.1-0.6-2.3
		c-0.4-0.2-1-0.3-1.9-0.3c-0.3,0-0.4-0.1-0.4-0.3c0-0.2,0.1-0.3,0.4-0.3h0.3c0.4,0,0.7,0,1.1,0.1c0.4,0,0.5,0.1,0.5,0.1
		c0.9,0,1.9-0.3,3-0.8l0.5-0.2l0.3-0.1c0.1,0.6,0.1,1.2,0.1,1.7v0.7c0.8-1.6,1.9-2.5,3.3-2.5c0.8,0,1.4,0.2,1.9,0.7
		C407.4,519.1,407.6,519.7,407.6,520.4"/>
	<rect x="415" y="525.1" class="st2" width="10" height="1.9"/>
</g>
<rect x="170.5" y="49" class="st3" width="389" height="652.9"/>
<g>
	<path class="st2" d="M488.4,467.8l0-0.3l0-0.3l0-0.3l0-0.3l0-0.3l0-0.3l0-0.3l0-0.3l0-0.3l0-0.3l-0.1-0.3l-0.1-0.3l-0.1-0.3
		l-0.1-0.3l-0.1-0.3l-0.1-0.3l-0.1-0.3l-0.1-0.3l-0.1-0.3l-0.1-0.3l-0.1-0.2l-0.1-0.2l-0.1-0.3l-0.1-0.2l-0.1-0.2l-0.1-0.2l-0.1-0.2
		l-0.1-0.2l-0.1-0.2l-0.1-0.2l-0.1-0.2l-0.1-0.2l-0.1-0.2l-0.1-0.2l-0.1-0.2l-0.1-0.2l-0.2-0.2l-0.1-0.2L485,458l-0.2-0.2l-0.2-0.2
		l-0.2-0.2l-0.2-0.2l-0.2-0.2l-0.2-0.2l-0.2-0.2l-0.2-0.2l-0.2-0.2l-0.2-0.2l-0.2-0.1l-0.2-0.2l-0.2-0.1l-0.2-0.1l-0.2-0.1l-0.2-0.1
		l-0.2-0.1l-0.2-0.1l-0.2-0.1l-0.2-0.1l-0.2-0.1l-0.2-0.1l-0.2-0.1l-0.2-0.1l-0.2-0.1l-0.2-0.1l-0.2-0.1l-0.2-0.1l-0.3-0.1l-0.2-0.1
		l-0.3-0.1l-0.3-0.1l-0.3-0.1l-0.3-0.1l-0.3-0.1l-0.3-0.1l-0.3-0.1l-0.3-0.1l-0.3-0.1l-0.3,0l-0.3,0l-0.3,0l-0.3,0l-0.3,0l-0.3,0
		l-0.3,0l-0.3,0l-0.4,0l-0.4,0l-0.4,0l-0.4,0l-0.4,0l-0.4,0h-0.4l-0.4,0h-11.9v2.3h1.7h0.1h0.1l0.1,0l0.1,0l0.1,0l0.1,0l0.1,0l0.1,0
		l0.1,0l0.1,0l0.1,0l0.1,0l0.1,0l0.1,0l0.1,0l0.1,0l0,0l0,0l0.1,0l0,0l0.1,0l0,0l0,0l0,0l0,0l0,0l0,0l0,0l0,0l0,0l0,0l0,0l0,0l0,0
		l0,0l0,0l0,0l0,0l0,0l0,0.1l0,0.1l0,0.1l0,0.1l0,0.1l0,0.1l0,0.1l0,0.1l0,0.1l0,0.1l0,0.1l0,0.1l0,0.1l0,0.1l0,0.1l0,0.1l0,0.1
		l0,0.1v0.1l0,0.1v0.1l0,0.2v0.2v0.2v0.2v19.1v0.2v0.1v0.1l0,0.1v0.1v0.1l0,0.1v0.1l0,0.1l0,0.1v0.1l0,0.1l0,0.1l0,0.1l0,0.1l0,0.1
		l0,0.1l0,0.1l0,0.1l0,0.1l0,0.1l0,0.1l0,0.1l0,0.1l0,0.1l0,0l0,0l0,0l0,0l0,0l0,0l0,0l0,0.1l0,0.1l0,0l0,0l0,0l0,0l0,0l0,0l0,0l0,0
		l0,0l0,0l0,0l0,0l-0.1,0l-0.1,0l-0.1,0l-0.1,0l-0.1,0l-0.1,0l-0.1,0l-0.1,0l-0.1,0l-0.1,0l-0.1,0l-0.1,0l-0.1,0l-0.1,0l-0.1,0
		l-0.1,0l-0.1,0H461h-1.7v2.3h13h0.5l0.5,0l0.5,0l0.5,0l0.5,0l0.5-0.1l0.5-0.1l0.5-0.1l0.5-0.1l0.4-0.1l0.4-0.1l0.4-0.1l0.4-0.1
		l0.4-0.1l0.4-0.1l0.4-0.1l0.4-0.2l0.4-0.2l0.4-0.2l0.4-0.2l0.4-0.2l0.3-0.2l0.3-0.2l0.3-0.2l0.3-0.2l0.3-0.2l0.3-0.3l0.3-0.3
		l0.3-0.3l0.3-0.3l0.3-0.3l0.3-0.3l0.2-0.3l0.2-0.3l0.2-0.3l0.2-0.3l0.2-0.3l0.2-0.3l0.2-0.3l0.2-0.3l0.2-0.3l0.2-0.3l0.2-0.3
		l0.1-0.3l0.1-0.3l0.1-0.3l0.1-0.3l0.1-0.3l0.1-0.3l0.1-0.3l0.1-0.4l0.1-0.4l0.1-0.4l0.1-0.4l0.1-0.4l0.1-0.4l0.1-0.4l0-0.4l0-0.4
		l0-0.4l0-0.4l0-0.4l0-0.4v-0.4v-0.3L488.4,467.8z M482.4,468.9l0,0.4l0,0.4l0,0.4l0,0.3l0,0.3l0,0.3l0,0.3l0,0.3l-0.1,0.3l-0.1,0.3
		l-0.1,0.3l-0.1,0.3l-0.1,0.3l-0.1,0.3l-0.1,0.3l-0.1,0.3l-0.1,0.3l-0.1,0.3l-0.1,0.3l-0.1,0.3l-0.1,0.3l-0.1,0.3l-0.1,0.2l-0.1,0.2
		l-0.2,0.2l-0.2,0.2l-0.2,0.2l-0.2,0.2l-0.2,0.2l-0.2,0.2l-0.2,0.2l-0.2,0.2l-0.2,0.2l-0.2,0.2l-0.2,0.2l-0.2,0.2l-0.2,0.2l-0.2,0.2
		l-0.2,0.2l-0.2,0.1l-0.2,0.1l-0.2,0.1l-0.2,0.1l-0.2,0.1l-0.2,0.1l-0.2,0.1l-0.2,0.1l-0.2,0.1l-0.2,0.1l-0.2,0.1l-0.2,0.1l-0.2,0.1
		l-0.2,0.1l-0.3,0.1l-0.2,0l-0.3,0.1l-0.2,0l-0.3,0l-0.3,0l-0.3,0l-0.3,0l-0.3,0h-0.3H472h-0.1l-0.1,0h-0.1l-0.1,0l-0.1,0l-0.1,0
		l-0.1,0l-0.1,0l-0.1,0l-0.1,0l-0.1,0l-0.1,0l-0.1,0l-0.1,0l-0.1,0l-0.1,0l-0.1,0l-0.1,0l-0.1,0l-0.1,0l-0.1,0l-0.1,0l-0.1,0l-0.1,0
		l-0.2,0l-0.1,0l-0.2,0l-0.1,0v-24l0,0l0.1,0l0.1,0l0.1,0l0.1,0l0.1,0l0.1,0l0.1,0l0.1,0l0.1,0l0.1,0l0.1,0l0.1,0l0.1,0l0.1,0l0.1,0
		l0.1,0l0.1,0l0.1,0l0.1,0l0.1,0l0.1,0l0.1,0l0.1,0l0.1,0l0.1,0h0.1h0.1l0.1,0l0.3,0l0.3,0l0.3,0l0.3,0l0.3,0l0.3,0l0.3,0l0.3,0
		l0.3,0.1l0.2,0.1l0.3,0.1l0.2,0.1l0.2,0.1l0.2,0.1l0.2,0.1l0.2,0.1l0.2,0.1l0.2,0.1l0.2,0.1l0.2,0.1l0.2,0.1l0.2,0.1l0.2,0.1
		l0.2,0.2l0.2,0.2l0.2,0.2l0.2,0.2l0.2,0.2l0.2,0.2l0.2,0.2l0.2,0.2l0.2,0.2l0.2,0.2l0.2,0.2l0.2,0.2l0.2,0.2l0.2,0.2l0.2,0.2
		l0.2,0.2l0.1,0.2l0.1,0.2l0.1,0.3l0.1,0.3l0.1,0.3l0.1,0.3l0.1,0.3l0.1,0.3l0.1,0.3l0.1,0.3l0.1,0.3l0.1,0.3l0.1,0.3l0.1,0.3
		l0.1,0.3l0.1,0.3l0,0.3l0,0.3l0,0.3l0,0.3l0,0.4l0,0.4l0,0.4l0,0.4v0.4V468.9z"/>
	<polygon class="st2" points="346.5,475.7 346.4,475.9 346.3,476 346.2,476.2 346.2,476.3 346.1,476.5 346,476.6 345.9,476.8 
		345.8,476.9 345.8,477.1 345.7,477.2 345.6,477.3 345.5,477.5 345.4,477.6 345.4,477.7 345.3,477.8 345.2,478 345.1,478.1 
		345.1,478.2 345,478.3 344.9,478.4 344.8,478.5 344.7,478.6 344.7,478.7 344.6,478.8 344.5,478.9 344.4,479 344.4,479.1 
		344.3,479.2 344.2,479.3 344.2,479.4 344.1,479.4 344,479.5 344,479.5 343.9,479.6 343.9,479.7 343.8,479.7 343.8,479.7 
		343.7,479.8 343.7,479.9 343.6,479.9 343.5,479.9 343.5,480 343.4,480 343.4,480.1 343.3,480.1 343.3,480.1 343.2,480.2 
		343.2,480.2 343.1,480.3 343.1,480.3 343,480.3 342.9,480.4 342.9,480.4 342.8,480.4 342.8,480.4 342.7,480.5 342.7,480.5 
		342.6,480.5 342.6,480.5 342.5,480.6 342.4,480.6 342.4,480.6 342.3,480.6 342.3,480.6 342.2,480.7 342.2,480.7 342.1,480.7 
		342,480.7 342,480.7 341.9,480.7 341.8,480.8 341.7,480.8 341.6,480.8 341.6,480.8 341.5,480.8 341.4,480.8 341.3,480.8 
		341.2,480.8 341.1,480.9 341,480.9 340.9,480.9 340.8,480.9 340.7,480.9 340.6,480.9 340.4,480.9 340.3,480.9 340.2,480.9 
		340.1,480.9 340,480.9 339.8,480.9 339.7,480.9 339.6,480.9 339.4,480.9 339.3,480.9 339.2,480.9 334.5,480.9 334.4,480.9 
		334.4,480.9 334.3,480.9 334.2,480.9 334.2,480.9 334.1,480.9 334,480.9 334,480.9 333.9,480.9 333.9,480.9 333.8,480.9 
		333.8,480.9 333.8,480.9 333.7,480.9 333.7,480.9 333.6,480.9 333.6,480.9 333.5,480.9 333.5,480.9 333.5,480.9 333.5,480.8 
		333.4,480.8 333.4,480.8 333.4,480.8 333.4,480.8 333.3,480.8 333.3,480.8 333.3,480.8 333.3,480.8 333.3,480.8 333.3,480.8 
		333.3,480.8 333.3,480.8 333.2,480.8 333.2,480.8 333.2,480.7 333.2,480.7 333.2,480.7 333.2,480.7 333.2,480.7 333.2,480.7 
		333.1,480.7 333.1,480.7 333.1,480.7 333.1,480.7 333.1,480.7 333.1,480.6 333.1,480.6 333.1,480.6 333.1,480.6 333.1,480.6 
		333.1,480.6 333.1,480.6 333,480.6 333,480.6 333,480.6 333,480.6 333,480.5 333,480.5 333,480.5 333,480.5 333,480.5 333,480.5 
		333,480.5 333,480.5 333,480.5 333,480.5 333,480.4 333,480.4 333,480.4 333,480.4 333,480.3 333,480.3 333,480.2 332.9,480.2 
		332.9,480.1 332.9,480.1 332.9,480 332.9,480 332.9,479.9 332.9,479.8 332.9,479.7 332.9,479.7 332.9,479.6 332.9,479.5 
		332.9,479.4 332.9,479.3 332.9,479.2 332.9,479.1 332.9,479 332.9,478.9 332.9,478.8 332.9,478.7 332.9,478.6 332.9,478.5 
		332.9,478.4 332.9,469.4 338.3,469.4 338.4,469.4 338.5,469.4 338.6,469.4 338.7,469.4 338.7,469.4 338.8,469.4 338.9,469.4 
		339,469.4 339.1,469.4 339.2,469.4 339.3,469.4 339.3,469.4 339.4,469.4 339.5,469.4 339.6,469.4 339.7,469.4 339.7,469.5 
		339.8,469.5 339.9,469.5 339.9,469.5 340,469.5 340,469.5 340.1,469.6 340.2,469.6 340.2,469.6 340.3,469.6 340.3,469.6 
		340.4,469.6 340.4,469.7 340.4,469.7 340.5,469.7 340.5,469.7 340.6,469.7 340.6,469.8 340.6,469.8 340.7,469.8 340.7,469.8 
		340.8,469.9 340.8,469.9 340.8,469.9 340.8,469.9 340.9,469.9 340.9,470 341,470 341,470 341,470.1 341,470.1 341.1,470.1 
		341.1,470.1 341.1,470.2 341.2,470.2 341.2,470.2 341.2,470.2 341.2,470.3 341.2,470.3 341.3,470.3 341.3,470.4 341.3,470.4 
		341.3,470.4 341.3,470.5 341.4,470.5 341.4,470.5 341.4,470.6 341.4,470.6 341.4,470.6 341.4,470.6 341.4,470.7 341.4,470.7 
		341.5,470.7 341.5,470.8 341.5,470.8 341.5,470.9 341.5,470.9 341.5,471 341.5,471 341.6,471.1 341.6,471.2 341.6,471.3 
		341.6,471.3 341.6,471.4 341.6,471.5 341.7,471.6 341.7,471.7 341.7,471.8 341.7,471.9 341.7,472 341.7,472.1 341.8,472.2 
		341.8,472.3 341.8,472.4 341.8,472.5 341.8,472.6 341.9,472.7 341.9,472.9 341.9,473 342,473.8 344,473.8 344,462 341.9,462 
		341.9,462.8 341.9,463 341.9,463.1 341.9,463.3 341.8,463.4 341.8,463.5 341.8,463.6 341.8,463.8 341.8,463.9 341.7,464 
		341.7,464.1 341.7,464.2 341.7,464.3 341.6,464.4 341.6,464.5 341.6,464.6 341.6,464.7 341.5,464.8 341.5,464.9 341.5,465 
		341.4,465.1 341.4,465.1 341.3,465.2 341.3,465.3 341.3,465.3 341.2,465.4 341.2,465.5 341.1,465.5 341.1,465.6 341,465.6 
		341,465.7 341,465.7 340.9,465.7 340.9,465.8 340.8,465.8 340.8,465.8 340.8,465.8 340.7,465.9 340.7,465.9 340.6,465.9 340.6,466 
		340.5,466 340.4,466 340.4,466 340.3,466.1 340.2,466.1 340.2,466.1 340.1,466.1 340,466.1 339.9,466.2 339.8,466.2 339.7,466.2 
		339.6,466.2 339.5,466.2 339.4,466.2 339.3,466.2 339.2,466.3 339,466.3 338.9,466.3 338.8,466.3 338.7,466.3 338.5,466.3 
		338.4,466.3 338.3,466.3 332.9,466.3 332.9,456.1 339.7,456.1 339.9,456.1 340,456.1 340.1,456.1 340.2,456.1 340.4,456.1 
		340.5,456.1 340.6,456.1 340.7,456.1 340.8,456.1 340.9,456.1 341,456.1 341.1,456.1 341.2,456.1 341.3,456.1 341.3,456.1 
		341.4,456.2 341.5,456.2 341.6,456.2 341.7,456.2 341.7,456.2 341.8,456.2 341.9,456.2 341.9,456.2 342,456.3 342.1,456.3 
		342.1,456.3 342.2,456.3 342.2,456.3 342.3,456.3 342.3,456.3 342.4,456.3 342.4,456.3 342.4,456.4 342.5,456.4 342.5,456.4 
		342.6,456.4 342.6,456.5 342.7,456.5 342.7,456.5 342.8,456.6 342.8,456.6 342.8,456.6 342.9,456.6 342.9,456.7 343,456.7 
		343,456.7 343,456.8 343.1,456.8 343.1,456.8 343.2,456.9 343.2,456.9 343.2,456.9 343.3,457 343.3,457 343.3,457 343.4,457.1 
		343.4,457.1 343.4,457.2 343.5,457.2 343.5,457.2 343.5,457.3 343.5,457.3 343.5,457.4 343.6,457.4 343.6,457.4 343.6,457.5 
		343.7,457.5 343.7,457.6 343.7,457.6 343.7,457.7 343.8,457.8 343.8,457.8 343.8,457.9 343.8,458 343.9,458 343.9,458.1 
		343.9,458.2 344,458.3 344,458.4 344,458.5 344,458.5 344.1,458.7 344.1,458.7 344.1,458.9 344.1,459 344.2,459.1 344.2,459.2 
		344.2,459.3 344.2,459.4 344.3,459.5 344.3,459.7 344.3,459.8 344.4,459.9 344.4,460.1 344.4,460.2 344.5,460.9 346.6,460.9 
		346.2,453 323.7,453 323.7,455.3 325.3,455.3 325.4,455.3 325.5,455.3 325.6,455.3 325.7,455.3 325.8,455.3 325.9,455.3 326,455.3 
		326,455.3 326.1,455.3 326.2,455.3 326.2,455.4 326.3,455.4 326.4,455.4 326.5,455.4 326.5,455.4 326.6,455.4 326.6,455.5 
		326.7,455.5 326.8,455.5 326.8,455.5 326.9,455.6 326.9,455.6 326.9,455.6 327,455.6 327,455.7 327.1,455.7 327.1,455.7 
		327.1,455.8 327.2,455.8 327.2,455.8 327.2,455.9 327.3,455.9 327.3,455.9 327.3,455.9 327.3,455.9 327.3,456 327.3,456 327.3,456 
		327.3,456.1 327.4,456.1 327.4,456.2 327.4,456.2 327.4,456.3 327.4,456.4 327.5,456.5 327.5,456.5 327.5,456.6 327.5,456.7 
		327.5,456.8 327.5,456.9 327.5,457 327.5,457.1 327.6,457.3 327.6,457.4 327.6,457.5 327.6,457.6 327.6,457.8 327.6,457.9 
		327.6,458.1 327.6,458.2 327.6,458.4 327.6,458.5 327.6,458.7 327.6,458.9 327.6,478.1 327.6,478.2 327.6,478.3 327.6,478.5 
		327.6,478.6 327.6,478.7 327.6,478.8 327.6,478.9 327.6,479 327.6,479.1 327.6,479.2 327.6,479.3 327.6,479.4 327.6,479.5 
		327.6,479.6 327.6,479.7 327.6,479.8 327.6,479.9 327.5,480 327.5,480 327.5,480.1 327.5,480.2 327.5,480.2 327.5,480.3 
		327.5,480.4 327.5,480.4 327.5,480.5 327.5,480.5 327.5,480.6 327.5,480.6 327.4,480.6 327.4,480.7 327.4,480.7 327.4,480.7 
		327.4,480.7 327.4,480.8 327.4,480.8 327.4,480.8 327.4,480.8 327.3,480.9 327.3,480.9 327.3,480.9 327.3,480.9 327.3,481 
		327.3,481 327.3,481 327.2,481 327.2,481 327.2,481 327.2,481.1 327.2,481.1 327.2,481.1 327.2,481.1 327.1,481.1 327.1,481.2 
		327.1,481.2 327.1,481.2 327.1,481.2 327,481.2 327,481.2 327,481.3 327,481.3 326.9,481.3 326.9,481.3 326.9,481.3 326.8,481.4 
		326.8,481.4 326.7,481.4 326.7,481.4 326.6,481.5 326.6,481.5 326.5,481.5 326.5,481.5 326.4,481.5 326.4,481.6 326.4,481.6 
		326.3,481.6 326.3,481.6 326.2,481.6 326.2,481.6 326.1,481.6 326.1,481.7 326,481.7 326,481.7 325.9,481.7 325.9,481.7 
		325.8,481.7 325.8,481.7 325.7,481.7 325.7,481.7 325.6,481.7 325.6,481.7 325.5,481.7 325.5,481.7 325.4,481.7 325.4,481.7 
		325.3,481.7 323.7,481.7 323.7,484 346.1,484 348.9,475.1 346.7,475.1 	"/>
	<polygon class="st2" points="302.3,475.1 292.8,453 283.8,453 283.8,455.3 284.6,455.3 284.7,455.3 284.8,455.3 284.9,455.3 
		285,455.3 285.1,455.3 285.2,455.3 285.2,455.3 285.3,455.3 285.4,455.3 285.5,455.3 285.6,455.3 285.6,455.3 285.7,455.3 
		285.8,455.4 285.9,455.4 285.9,455.4 286,455.4 286.1,455.4 286.1,455.4 286.2,455.4 286.2,455.4 286.3,455.5 286.3,455.5 
		286.4,455.5 286.4,455.5 286.5,455.5 286.5,455.5 286.5,455.6 286.6,455.6 286.6,455.6 286.6,455.6 286.7,455.6 286.7,455.7 
		286.8,455.7 286.8,455.7 286.8,455.7 286.9,455.7 286.9,455.8 286.9,455.8 287,455.8 287,455.8 287,455.9 287,455.9 287.1,455.9 
		287.1,455.9 287.1,455.9 287.1,456 287.2,456 287.2,456 287.2,456 287.2,456.1 287.2,456.1 287.3,456.1 287.3,456.1 287.3,456.2 
		287.3,456.2 287.3,456.2 287.3,456.2 287.3,456.3 287.4,456.3 287.4,456.3 287.4,456.3 287.4,456.3 287.4,456.4 287.4,456.4 
		287.4,456.5 287.5,456.5 287.5,456.6 287.5,456.6 287.5,456.7 287.5,456.7 287.5,456.8 287.5,456.8 287.6,456.9 287.6,457 
		287.6,457 287.6,457.1 287.6,457.2 287.6,457.3 287.6,457.4 287.7,457.4 287.7,457.5 287.7,457.6 287.7,457.7 287.7,457.8 
		287.7,457.9 287.7,458 287.7,458.1 287.7,458.2 287.7,458.3 287.7,458.4 287.7,458.5 287.7,458.6 287.7,458.7 287.7,458.9 
		287.7,478.2 287.7,478.3 287.7,478.5 287.7,478.6 287.7,478.7 287.7,478.9 287.7,479 287.7,479.1 287.7,479.2 287.7,479.4 
		287.7,479.5 287.7,479.6 287.7,479.7 287.7,479.8 287.7,479.9 287.6,480 287.6,480.1 287.6,480.2 287.6,480.3 287.6,480.3 
		287.6,480.4 287.5,480.5 287.5,480.6 287.5,480.6 287.5,480.7 287.5,480.7 287.5,480.8 287.5,480.8 287.4,480.8 287.4,480.9 
		287.4,480.9 287.4,480.9 287.4,480.9 287.4,481 287.3,481 287.3,481.1 287.3,481.1 287.2,481.2 287.2,481.2 287.2,481.2 
		287.1,481.3 287.1,481.3 287,481.3 287,481.4 286.9,481.4 286.9,481.4 286.8,481.5 286.8,481.5 286.7,481.5 286.6,481.5 
		286.6,481.6 286.5,481.6 286.5,481.6 286.4,481.6 286.3,481.7 286.2,481.7 286.2,481.7 286.1,481.7 286,481.7 285.9,481.7 
		285.8,481.7 285.8,481.7 285.7,481.7 285.6,481.7 285.5,481.7 283.8,481.7 283.8,484 294.8,484 294.8,481.7 293.1,481.7 293,481.7 
		292.9,481.7 292.9,481.7 292.8,481.7 292.7,481.7 292.6,481.7 292.5,481.7 292.5,481.7 292.4,481.7 292.3,481.7 292.3,481.7 
		292.2,481.6 292.1,481.6 292.1,481.6 292,481.6 292,481.6 291.9,481.5 291.8,481.5 291.8,481.5 291.7,481.5 291.7,481.4 
		291.6,481.4 291.6,481.4 291.6,481.4 291.5,481.3 291.5,481.3 291.4,481.3 291.4,481.2 291.4,481.2 291.3,481.2 291.3,481.1 
		291.3,481.1 291.3,481.1 291.2,481.1 291.2,481 291.2,481 291.2,481 291.2,480.9 291.2,480.9 291.1,480.8 291.1,480.8 291.1,480.7 
		291.1,480.7 291.1,480.6 291.1,480.5 291,480.4 291,480.3 291,480.3 291,480.2 291,480.1 291,479.9 291,479.8 290.9,479.7 
		290.9,479.6 290.9,479.5 290.9,479.3 290.9,479.2 290.9,479.1 290.9,478.9 290.9,478.8 290.9,478.6 290.9,478.5 290.9,478.3 
		290.9,478.2 290.9,461.8 300.4,484 301.9,484 311.5,461.8 311.5,478.2 311.5,478.3 311.5,478.5 311.5,478.6 311.4,478.7 
		311.4,478.9 311.4,479 311.4,479.1 311.4,479.2 311.4,479.4 311.4,479.5 311.4,479.6 311.4,479.7 311.4,479.8 311.4,479.9 
		311.4,480 311.4,480.1 311.3,480.2 311.3,480.3 311.3,480.3 311.3,480.4 311.3,480.5 311.3,480.6 311.3,480.6 311.2,480.7 
		311.2,480.7 311.2,480.8 311.2,480.8 311.2,480.8 311.2,480.9 311.1,480.9 311.1,480.9 311.1,480.9 311.1,481 311.1,481 311,481.1 
		311,481.1 311,481.2 310.9,481.2 310.9,481.2 310.8,481.3 310.8,481.3 310.8,481.3 310.7,481.4 310.7,481.4 310.6,481.4 
		310.6,481.5 310.5,481.5 310.4,481.5 310.4,481.5 310.3,481.6 310.3,481.6 310.2,481.6 310.1,481.6 310.1,481.7 310,481.7 
		309.9,481.7 309.8,481.7 309.8,481.7 309.7,481.7 309.6,481.7 309.5,481.7 309.4,481.7 309.3,481.7 309.2,481.7 307.6,481.7 
		307.6,484 320.6,484 320.6,481.7 319,481.7 318.9,481.7 318.8,481.7 318.7,481.7 318.6,481.7 318.6,481.7 318.5,481.7 318.4,481.7 
		318.3,481.7 318.3,481.7 318.2,481.7 318.1,481.7 318.1,481.6 318,481.6 317.9,481.6 317.9,481.6 317.8,481.6 317.8,481.5 
		317.7,481.5 317.6,481.5 317.6,481.5 317.6,481.4 317.5,481.4 317.5,481.4 317.4,481.4 317.4,481.3 317.3,481.3 317.3,481.3 
		317.2,481.2 317.2,481.2 317.2,481.2 317.2,481.1 317.1,481.1 317.1,481.1 317.1,481 317.1,481 317.1,481 317.1,481 317,480.9 
		317,480.9 317,480.8 317,480.8 317,480.7 316.9,480.6 316.9,480.6 316.9,480.5 316.9,480.4 316.9,480.3 316.9,480.3 316.8,480.2 
		316.8,480.1 316.8,479.9 316.8,479.8 316.8,479.7 316.8,479.6 316.8,479.5 316.8,479.3 316.7,479.2 316.7,479.1 316.7,478.9 
		316.7,478.8 316.7,478.6 316.7,478.5 316.7,478.3 316.7,478.2 316.7,458.9 316.7,458.7 316.7,458.6 316.7,458.4 316.7,458.3 
		316.7,458.1 316.7,458 316.7,457.9 316.7,457.8 316.8,457.6 316.8,457.5 316.8,457.4 316.8,457.3 316.8,457.2 316.8,457.1 
		316.8,457 316.8,456.9 316.8,456.8 316.8,456.8 316.9,456.7 316.9,456.6 316.9,456.5 316.9,456.5 316.9,456.4 316.9,456.3 
		317,456.3 317,456.3 317,456.2 317,456.2 317,456.1 317,456.1 317,456.1 317.1,456.1 317.1,456 317.1,456 317.2,455.9 317.2,455.9 
		317.2,455.9 317.3,455.8 317.3,455.8 317.3,455.7 317.4,455.7 317.4,455.7 317.5,455.6 317.5,455.6 317.6,455.6 317.6,455.5 
		317.7,455.5 317.7,455.5 317.8,455.5 317.9,455.4 317.9,455.4 318,455.4 318.1,455.4 318.1,455.4 318.2,455.3 318.3,455.3 
		318.4,455.3 318.4,455.3 318.5,455.3 318.6,455.3 318.7,455.3 318.8,455.3 318.9,455.3 319,455.3 320.6,455.3 320.6,453 311.7,453 
			"/>
	<polygon class="st2" points="235.7,475 235.7,475.2 235.6,475.3 235.5,475.5 235.5,475.6 235.4,475.8 235.3,475.9 235.3,476.1 
		235.2,476.2 235.1,476.4 235.1,476.5 235,476.6 235,476.8 234.9,476.9 234.8,477 234.8,477.1 234.7,477.2 234.6,477.4 234.6,477.5 
		234.5,477.6 234.4,477.7 234.4,477.8 234.3,477.9 234.3,478 234.2,478.1 234.1,478.2 234.1,478.3 234,478.3 234,478.4 233.9,478.5 
		233.9,478.6 233.8,478.7 233.7,478.7 233.7,478.8 233.6,478.9 233.6,478.9 233.5,479 233.4,479.1 233.4,479.1 233.3,479.2 
		233.2,479.2 233.2,479.3 233.1,479.4 233.1,479.4 233,479.5 232.9,479.5 232.9,479.6 232.8,479.6 232.7,479.7 232.7,479.7 
		232.6,479.8 232.5,479.8 232.5,479.8 232.4,479.9 232.3,479.9 232.3,480 232.2,480 232.1,480 232.1,480.1 232,480.1 231.9,480.1 
		231.9,480.2 231.8,480.2 231.7,480.2 231.7,480.3 231.6,480.3 231.5,480.3 231.4,480.3 231.4,480.3 231.3,480.4 231.2,480.4 
		231.1,480.4 231,480.4 230.9,480.5 230.8,480.5 230.6,480.5 230.5,480.5 230.4,480.5 230.3,480.5 230.1,480.6 230,480.6 
		229.9,480.6 229.7,480.6 229.6,480.6 229.4,480.6 229.3,480.6 229.1,480.6 229,480.6 228.8,480.7 228.6,480.7 228.4,480.7 
		228.3,480.7 228.1,480.7 227.9,480.7 227.7,480.7 227.5,480.7 225.5,480.7 225.4,480.7 225.2,480.7 225,480.7 224.9,480.7 
		224.7,480.7 224.6,480.7 224.5,480.7 224.3,480.7 224.2,480.7 224.1,480.7 224,480.6 223.8,480.6 223.7,480.6 223.6,480.6 
		223.5,480.6 223.4,480.6 223.3,480.6 223.3,480.6 223.2,480.6 223.1,480.6 223,480.6 222.9,480.6 222.9,480.6 222.8,480.6 
		222.8,480.6 222.7,480.5 222.7,480.5 222.6,480.5 222.6,480.5 222.6,480.5 222.6,480.5 222.6,480.5 222.6,480.5 222.6,480.5 
		222.5,480.5 222.5,480.5 222.5,480.5 222.5,480.5 222.5,480.4 222.4,480.4 222.4,480.4 222.4,480.4 222.4,480.4 222.4,480.4 
		222.4,480.4 222.4,480.4 222.3,480.4 222.3,480.4 222.3,480.3 222.3,480.3 222.3,480.3 222.3,480.3 222.3,480.3 222.3,480.3 
		222.3,480.3 222.3,480.3 222.2,480.3 222.2,480.2 222.2,480.2 222.2,480.2 222.2,480.2 222.2,480.2 222.2,480.2 222.2,480.2 
		222.2,480.1 222.2,480.1 222.2,480.1 222.1,480 222.1,480 222.1,480 222.1,479.9 222.1,479.9 222.1,479.8 222.1,479.8 222.1,479.7 
		222,479.7 222,479.6 222,479.5 222,479.5 222,479.4 222,479.3 222,479.2 222,479.2 222,479.1 222,479 222,478.9 222,478.8 
		222,478.7 222,478.6 222,478.6 222,478.5 222,478.3 222,478.2 222,478.1 222,478 222,459.5 222,459.3 222,459.1 222,459 222,458.8 
		222,458.7 222,458.6 222,458.4 222,458.3 222,458.2 222,458 222,457.9 222,457.8 222,457.7 222,457.6 222,457.5 222,457.4 
		222,457.3 222,457.2 222,457.1 222.1,457 222.1,457 222.1,456.9 222.1,456.8 222.1,456.8 222.1,456.7 222.1,456.6 222.2,456.6 
		222.2,456.6 222.2,456.5 222.2,456.5 222.2,456.5 222.2,456.5 222.2,456.4 222.2,456.4 222.2,456.4 222.3,456.3 222.3,456.3 
		222.3,456.3 222.3,456.3 222.3,456.3 222.3,456.2 222.4,456.2 222.4,456.2 222.4,456.1 222.4,456.1 222.5,456.1 222.5,456.1 
		222.5,456 222.5,456 222.6,456 222.6,456 222.6,455.9 222.6,455.9 222.7,455.9 222.7,455.9 222.8,455.8 222.8,455.8 222.8,455.8 
		222.9,455.8 222.9,455.7 223,455.7 223,455.7 223.1,455.7 223.1,455.6 223.1,455.6 223.2,455.6 223.2,455.6 223.3,455.6 
		223.3,455.5 223.4,455.5 223.4,455.5 223.5,455.5 223.6,455.5 223.6,455.4 223.7,455.4 223.8,455.4 223.8,455.4 223.9,455.4 
		224,455.4 224.1,455.4 224.2,455.4 224.3,455.3 224.4,455.3 224.5,455.3 224.6,455.3 224.7,455.3 224.8,455.3 224.9,455.3 
		225,455.3 225.1,455.3 225.2,455.3 225.4,455.3 225.5,455.3 225.6,455.3 225.7,455.3 226.6,455.3 226.6,453 212.7,453 212.7,455.3 
		214.4,455.3 214.5,455.3 214.6,455.3 214.7,455.3 214.8,455.3 214.8,455.3 214.9,455.3 215,455.3 215.1,455.3 215.1,455.3 
		215.2,455.3 215.3,455.4 215.3,455.4 215.4,455.4 215.4,455.4 215.5,455.4 215.6,455.5 215.6,455.5 215.7,455.5 215.7,455.5 
		215.8,455.6 215.8,455.6 215.9,455.6 215.9,455.6 216,455.7 216,455.7 216.1,455.7 216.1,455.8 216.1,455.8 216.2,455.9 
		216.2,455.9 216.2,455.9 216.3,456 216.3,456 216.3,456 216.3,456 216.3,456.1 216.3,456.1 216.4,456.1 216.4,456.2 216.4,456.2 
		216.4,456.3 216.4,456.4 216.5,456.4 216.5,456.5 216.5,456.6 216.5,456.7 216.5,456.7 216.5,456.8 216.6,456.9 216.6,457 
		216.6,457.2 216.6,457.3 216.6,457.4 216.6,457.5 216.6,457.6 216.6,457.8 216.6,457.9 216.7,458 216.7,458.2 216.7,458.3 
		216.7,458.5 216.7,458.6 216.7,458.8 216.7,459 216.7,478 216.7,478.2 216.7,478.3 216.7,478.5 216.7,478.6 216.7,478.8 
		216.7,478.9 216.7,479 216.6,479.1 216.6,479.3 216.6,479.4 216.6,479.5 216.6,479.6 216.6,479.7 216.6,479.8 216.6,479.9 
		216.6,480 216.6,480.1 216.6,480.2 216.5,480.3 216.5,480.3 216.5,480.4 216.5,480.5 216.5,480.5 216.5,480.6 216.5,480.6 
		216.4,480.7 216.4,480.7 216.4,480.8 216.4,480.8 216.4,480.8 216.4,480.8 216.4,480.9 216.3,480.9 216.3,481 216.3,481 
		216.2,481.1 216.2,481.1 216.1,481.2 216.1,481.2 216.1,481.2 216,481.3 216,481.3 215.9,481.4 215.9,481.4 215.8,481.4 
		215.8,481.5 215.7,481.5 215.7,481.5 215.6,481.5 215.5,481.6 215.5,481.6 215.4,481.6 215.3,481.6 215.3,481.7 215.2,481.7 
		215.1,481.7 215,481.7 215,481.7 214.9,481.7 214.8,481.7 214.7,481.7 214.6,481.7 214.5,481.7 214.4,481.7 212.7,481.7 212.7,484 
		235.2,484 238,474.7 236,474.3 	"/>
	<path class="st2" d="M269.3,481.7L269.3,481.7l-0.2,0l-0.1,0l-0.1,0l-0.1,0l-0.1,0l-0.1,0l-0.1,0l-0.1,0l-0.1,0l-0.1,0l-0.1,0
		l-0.1,0l-0.1,0l-0.1,0l-0.1,0l-0.1,0l-0.1,0l-0.1,0l-0.1,0l-0.1,0l-0.1,0l-0.1,0l-0.1,0l-0.1,0l0,0l-0.1,0l0,0l0,0l0,0l0,0l0,0
		l0-0.1l0-0.1l-0.1-0.1l0-0.1l-0.1-0.1l-0.1-0.1l-0.1-0.1l0-0.1l-0.1-0.1l-0.1-0.1l-0.1-0.1l-0.1-0.1l-0.1-0.1l-0.1-0.1l-0.1-0.1
		l-0.1-0.1l-0.1-0.1l-0.1-0.1l-0.1-0.1L266,479l-0.1-0.1l-0.1-0.1l-0.1-0.1l-0.1-0.2l-0.1-0.2l-0.1-0.2l-0.1-0.2l-0.1-0.2l-0.1-0.2
		l-0.1-0.2l-9.7-25H254l-9.9,24.8l-0.1,0.2l-0.1,0.2l-0.1,0.2l-0.1,0.2l-0.1,0.2l-0.1,0.2l-0.1,0.2l-0.1,0.2l-0.1,0.2l-0.1,0.2
		l-0.1,0.2l-0.1,0.1l-0.1,0.1l-0.1,0.1l-0.1,0.1l-0.1,0.1l-0.1,0.1l-0.1,0.1l-0.1,0.1l0,0.1l-0.1,0.1l-0.1,0.1l-0.1,0.1l-0.1,0.1
		l-0.1,0.1l-0.1,0.1l-0.1,0.1l-0.1,0.1l-0.1,0.1l-0.1,0.1L242,481l0,0.1l0,0l0,0l0,0l0,0l0,0l0,0l0,0l0,0l0,0l0,0l0,0l0,0l0,0
		l-0.1,0l-0.1,0l-0.1,0l-0.1,0l-0.1,0l-0.1,0l-0.1,0l-0.1,0l-0.1,0l-0.1,0l-0.1,0l-0.1,0l-0.1,0l-0.1,0l-0.1,0l-0.1,0l-0.1,0l-0.1,0
		l-0.7,0.1v2.2h10v-2.2l-0.8-0.1l-0.1,0l-0.1,0l-0.1,0l-0.1,0l-0.1,0l-0.1,0l-0.1,0l-0.1,0l-0.1,0l-0.1,0l-0.1,0l-0.1,0l-0.1,0
		l-0.1,0l-0.1,0l-0.1,0l-0.1,0l-0.1,0l-0.1,0l-0.1,0l-0.1,0l0,0l0,0l0,0l0,0l0,0l0,0l0,0l0,0l0,0l0,0l0,0l0,0l0,0l0,0l0,0l0,0l0,0
		l0,0l0,0l0,0l0,0l0,0l0,0l0,0l0,0l0,0v0l0,0l0,0v0l0,0v0l0,0v0v0l0,0v0v0v0v0l0,0v0v0l0,0v0v0l0,0v0l0,0v-0.1l0-0.1l0-0.1l0-0.1
		l0-0.1l0-0.1l0-0.1l0-0.1l0-0.1l0-0.1l0-0.1l0-0.1l0-0.1l0-0.1l0-0.1l0-0.1l0-0.1l0-0.1l0-0.1l0-0.1l0-0.1l0-0.1l0-0.1l0-0.1l0-0.1
		l1.7-4.2h9.8l1.5,3.8l0.1,0.1l0,0.1l0,0.1l0,0.1l0,0.1l0,0.1l0,0.1l0,0.1l0,0.1l0,0.1l0,0.1l0,0.1l0,0.1l0,0.1l0,0.1l0,0.1l0,0.1
		l0,0.1l0,0.1l0,0.1l0,0.1l0,0.1l0,0.1l0,0.1l0,0.1v0.1l0,0.1v0.1l0,0.1v0v0v0v0v0v0v0v0l0,0v0v0l0,0v0l0,0v0l0,0l0,0v0l0,0l0,0l0,0
		l0,0l0,0l0,0l0,0l0,0l0,0l0,0l0,0l0,0l0,0l0,0l0,0l0,0l0,0l0,0l0,0l0,0l0,0l0,0l0,0l0,0l0,0l0,0l0,0l0,0l0,0l0,0l-0.1,0l0,0l-0.1,0
		l-0.1,0l-0.1,0l-0.1,0l-0.1,0l-0.1,0l-0.1,0l-0.1,0l-0.1,0l-0.1,0l-0.1,0l-0.1,0l-0.1,0l-0.1,0l-0.1,0l-0.1,0l-0.7,0v2.2h12.2v-2.2
		L269.3,481.7L269.3,481.7z M249.9,471l3.8-9.3l3.6,9.3H249.9z"/>
	<polygon class="st2" points="446.1,455.3 447.7,455.3 447.8,455.3 447.9,455.3 448,455.3 448.1,455.3 448.2,455.3 448.3,455.3 
		448.3,455.3 448.4,455.3 448.5,455.3 448.5,455.3 448.6,455.4 448.7,455.4 448.7,455.4 448.8,455.4 448.9,455.4 448.9,455.5 
		449,455.5 449,455.5 449.1,455.5 449.1,455.5 449.2,455.6 449.2,455.6 449.3,455.6 449.3,455.7 449.4,455.7 449.4,455.7 
		449.4,455.8 449.5,455.8 449.5,455.8 449.5,455.9 449.6,455.9 449.6,455.9 449.6,456 449.6,456 449.7,456 449.7,456 449.7,456 
		449.7,456.1 449.7,456.1 449.7,456.2 449.7,456.2 449.8,456.3 449.8,456.4 449.8,456.4 449.8,456.5 449.8,456.6 449.9,456.7 
		449.9,456.8 449.9,456.9 449.9,457 449.9,457.1 449.9,457.2 449.9,457.3 450,457.4 450,457.5 450,457.7 450,457.8 450,457.9 
		450,458.1 450,458.2 450,458.4 450,458.5 450,458.7 450,458.9 450,473.8 434.2,453 425.7,453 425.7,455.3 426.5,455.3 426.5,455.3 
		426.6,455.3 426.7,455.3 426.7,455.3 426.8,455.3 426.9,455.3 426.9,455.3 427,455.3 427,455.3 427.1,455.3 427.1,455.3 
		427.2,455.3 427.3,455.3 427.3,455.3 427.4,455.3 427.4,455.3 427.4,455.3 427.5,455.3 427.5,455.3 427.6,455.3 427.6,455.4 
		427.7,455.4 427.7,455.4 427.7,455.4 427.8,455.4 427.8,455.4 427.8,455.4 427.9,455.4 427.9,455.4 427.9,455.4 428,455.4 
		428,455.5 428.1,455.5 428.2,455.5 428.2,455.5 428.3,455.6 428.4,455.6 428.4,455.6 428.5,455.6 428.5,455.6 428.6,455.7 
		428.7,455.7 428.7,455.7 428.8,455.8 428.8,455.8 428.9,455.8 428.9,455.8 429,455.9 429,455.9 429.1,455.9 429.1,455.9 429.2,456 
		429.2,456 429.3,456 429.3,456 429.3,456.1 429.4,456.1 429.4,456.1 429.5,456.1 429.5,456.2 429.5,456.2 429.6,456.2 429.6,456.2 
		429.6,456.3 429.6,456.3 429.7,456.3 429.7,456.3 429.7,456.4 429.8,456.4 429.8,456.4 429.9,456.5 429.9,456.5 430,456.6 
		430,456.6 430.1,456.7 430.1,456.7 430.2,456.8 430.2,456.8 430.3,456.9 430.3,456.9 430.4,457 430.4,457.1 430.5,457.1 
		430.5,457.2 430.6,457.3 430.7,457.3 430.7,457.4 430.8,457.5 430.9,457.6 430.9,457.6 431,457.7 431.1,457.8 431.1,457.9 
		431.1,478.2 431.1,478.3 431.1,478.5 431.1,478.6 431.1,478.7 431.1,478.9 431.1,479 431.1,479.1 431.1,479.2 431.1,479.4 
		431.1,479.5 431.1,479.6 431.1,479.7 431,479.8 431,479.9 431,480 431,480.1 431,480.2 431,480.3 431,480.3 431,480.4 430.9,480.5 
		430.9,480.6 430.9,480.6 430.9,480.7 430.9,480.7 430.9,480.8 430.8,480.8 430.8,480.8 430.8,480.9 430.8,480.9 430.8,480.9 
		430.8,480.9 430.8,481 430.7,481 430.7,481.1 430.7,481.1 430.6,481.2 430.6,481.2 430.5,481.2 430.5,481.3 430.5,481.3 
		430.4,481.3 430.4,481.4 430.3,481.4 430.3,481.4 430.2,481.5 430.2,481.5 430.1,481.5 430,481.5 430,481.6 429.9,481.6 
		429.8,481.6 429.8,481.6 429.7,481.7 429.6,481.7 429.6,481.7 429.5,481.7 429.4,481.7 429.3,481.7 429.2,481.7 429.1,481.7 
		429,481.7 429,481.7 428.9,481.7 427.2,481.7 427.2,484 438.2,484 438.2,481.7 436.5,481.7 436.4,481.7 436.3,481.7 436.2,481.7 
		436.2,481.7 436.1,481.7 436,481.7 435.9,481.7 435.9,481.7 435.8,481.7 435.7,481.7 435.7,481.7 435.6,481.6 435.5,481.6 
		435.5,481.6 435.4,481.6 435.3,481.6 435.3,481.5 435.2,481.5 435.2,481.5 435.1,481.5 435.1,481.4 435,481.4 435,481.4 
		434.9,481.4 434.9,481.3 434.9,481.3 434.8,481.3 434.8,481.2 434.7,481.2 434.7,481.2 434.7,481.1 434.7,481.1 434.6,481.1 
		434.6,481.1 434.6,481 434.6,481 434.6,481 434.6,480.9 434.6,480.9 434.5,480.8 434.5,480.8 434.5,480.7 434.5,480.7 434.5,480.6 
		434.4,480.5 434.4,480.4 434.4,480.3 434.4,480.3 434.4,480.2 434.4,480.1 434.4,479.9 434.3,479.8 434.3,479.7 434.3,479.6 
		434.3,479.5 434.3,479.3 434.3,479.2 434.3,479.1 434.3,478.9 434.3,478.8 434.3,478.6 434.3,478.5 434.3,478.3 434.3,478.2 
		434.3,462 451.4,484.5 453.2,484.5 453.2,458.9 453.2,458.7 453.2,458.6 453.2,458.4 453.2,458.3 453.2,458.1 453.2,458 
		453.2,457.9 453.2,457.8 453.2,457.6 453.2,457.5 453.2,457.4 453.2,457.3 453.2,457.2 453.2,457.1 453.3,457 453.3,456.9 
		453.3,456.8 453.3,456.8 453.3,456.7 453.3,456.6 453.3,456.5 453.3,456.5 453.4,456.4 453.4,456.3 453.4,456.3 453.4,456.3 
		453.4,456.2 453.4,456.2 453.5,456.1 453.5,456.1 453.5,456.1 453.5,456.1 453.5,456 453.6,456 453.6,455.9 453.6,455.9 
		453.7,455.9 453.7,455.8 453.7,455.8 453.8,455.7 453.8,455.7 453.9,455.7 453.9,455.6 454,455.6 454,455.6 454.1,455.5 
		454.1,455.5 454.2,455.5 454.2,455.5 454.3,455.4 454.4,455.4 454.4,455.4 454.5,455.4 454.6,455.4 454.6,455.3 454.7,455.3 
		454.8,455.3 454.9,455.3 454.9,455.3 455,455.3 455.1,455.3 455.2,455.3 455.3,455.3 455.4,455.3 457.1,455.3 457.1,453 446.1,453 
			"/>
	<polygon class="st2" points="421.9,475.7 421.8,475.9 421.7,476 421.7,476.2 421.6,476.3 421.5,476.5 421.4,476.6 421.3,476.8 
		421.3,476.9 421.2,477.1 421.1,477.2 421,477.3 420.9,477.5 420.9,477.6 420.8,477.7 420.7,477.8 420.6,478 420.6,478.1 
		420.5,478.2 420.4,478.3 420.3,478.4 420.2,478.5 420.2,478.6 420.1,478.7 420,478.8 420,478.9 419.9,479 419.8,479.1 419.7,479.2 
		419.7,479.3 419.6,479.4 419.5,479.4 419.5,479.5 419.4,479.5 419.4,479.6 419.3,479.7 419.3,479.7 419.2,479.7 419.1,479.8 
		419.1,479.9 419,479.9 419,479.9 418.9,480 418.9,480 418.8,480.1 418.8,480.1 418.7,480.1 418.6,480.2 418.6,480.2 418.5,480.3 
		418.5,480.3 418.4,480.3 418.4,480.4 418.3,480.4 418.3,480.4 418.2,480.4 418.2,480.5 418.1,480.5 418,480.5 418,480.5 
		417.9,480.6 417.9,480.6 417.8,480.6 417.8,480.6 417.7,480.6 417.7,480.7 417.6,480.7 417.5,480.7 417.5,480.7 417.4,480.7 
		417.3,480.7 417.2,480.8 417.2,480.8 417.1,480.8 417,480.8 416.9,480.8 416.8,480.8 416.7,480.8 416.6,480.8 416.5,480.9 
		416.4,480.9 416.3,480.9 416.2,480.9 416.1,480.9 416,480.9 415.9,480.9 415.8,480.9 415.6,480.9 415.5,480.9 415.4,480.9 
		415.3,480.9 415.1,480.9 415,480.9 414.9,480.9 414.7,480.9 414.6,480.9 409.9,480.9 409.8,480.9 409.8,480.9 409.7,480.9 
		409.7,480.9 409.6,480.9 409.5,480.9 409.5,480.9 409.4,480.9 409.4,480.9 409.3,480.9 409.3,480.9 409.2,480.9 409.2,480.9 
		409.1,480.9 409.1,480.9 409.1,480.9 409,480.9 409,480.9 408.9,480.9 408.9,480.9 408.9,480.8 408.9,480.8 408.8,480.8 
		408.8,480.8 408.8,480.8 408.8,480.8 408.7,480.8 408.7,480.8 408.7,480.8 408.7,480.8 408.7,480.8 408.7,480.8 408.7,480.8 
		408.7,480.8 408.7,480.8 408.6,480.7 408.6,480.7 408.6,480.7 408.6,480.7 408.6,480.7 408.6,480.7 408.6,480.7 408.6,480.7 
		408.6,480.7 408.5,480.7 408.5,480.7 408.5,480.6 408.5,480.6 408.5,480.6 408.5,480.6 408.5,480.6 408.5,480.6 408.5,480.6 
		408.5,480.6 408.5,480.6 408.5,480.6 408.5,480.6 408.5,480.5 408.5,480.5 408.4,480.5 408.4,480.5 408.4,480.5 408.4,480.5 
		408.4,480.5 408.4,480.5 408.4,480.5 408.4,480.5 408.4,480.4 408.4,480.4 408.4,480.4 408.4,480.4 408.4,480.3 408.4,480.3 
		408.4,480.2 408.4,480.2 408.4,480.1 408.4,480.1 408.4,480 408.4,480 408.3,479.9 408.3,479.8 408.3,479.7 408.3,479.7 
		408.3,479.6 408.3,479.5 408.3,479.4 408.3,479.3 408.3,479.2 408.3,479.1 408.3,479 408.3,478.9 408.3,478.8 408.3,478.7 
		408.3,478.6 408.3,478.5 408.3,478.4 408.3,469.4 413.7,469.4 413.8,469.4 413.9,469.4 414,469.4 414.1,469.4 414.2,469.4 
		414.3,469.4 414.4,469.4 414.4,469.4 414.5,469.4 414.6,469.4 414.7,469.4 414.8,469.4 414.9,469.4 414.9,469.4 415,469.4 
		415.1,469.4 415.2,469.5 415.2,469.5 415.3,469.5 415.3,469.5 415.4,469.5 415.5,469.5 415.5,469.6 415.6,469.6 415.6,469.6 
		415.7,469.6 415.7,469.6 415.8,469.6 415.8,469.7 415.9,469.7 415.9,469.7 415.9,469.7 416,469.7 416,469.8 416.1,469.8 
		416.1,469.8 416.1,469.8 416.2,469.9 416.2,469.9 416.2,469.9 416.3,469.9 416.3,469.9 416.4,470 416.4,470 416.4,470 416.4,470.1 
		416.5,470.1 416.5,470.1 416.5,470.1 416.5,470.2 416.6,470.2 416.6,470.2 416.6,470.2 416.6,470.3 416.7,470.3 416.7,470.3 
		416.7,470.4 416.7,470.4 416.8,470.4 416.8,470.5 416.8,470.5 416.8,470.5 416.8,470.6 416.8,470.6 416.8,470.6 416.9,470.6 
		416.9,470.7 416.9,470.7 416.9,470.7 416.9,470.8 416.9,470.8 416.9,470.9 417,470.9 417,471 417,471 417,471.1 417,471.2 
		417,471.3 417,471.3 417.1,471.4 417.1,471.5 417.1,471.6 417.1,471.7 417.1,471.8 417.1,471.9 417.2,472 417.2,472.1 417.2,472.2 
		417.2,472.3 417.2,472.4 417.2,472.5 417.3,472.6 417.3,472.7 417.3,472.9 417.3,473 417.4,473.8 419.5,473.8 419.5,462 417.4,462 
		417.3,462.8 417.3,463 417.3,463.1 417.3,463.3 417.3,463.4 417.3,463.5 417.2,463.6 417.2,463.8 417.2,463.9 417.2,464 
		417.2,464.1 417.1,464.2 417.1,464.3 417.1,464.4 417,464.5 417,464.6 417,464.7 417,464.8 416.9,464.9 416.9,465 416.8,465.1 
		416.8,465.1 416.8,465.2 416.7,465.3 416.7,465.3 416.6,465.4 416.6,465.5 416.6,465.5 416.5,465.6 416.5,465.6 416.4,465.7 
		416.4,465.7 416.4,465.7 416.3,465.8 416.3,465.8 416.2,465.8 416.2,465.8 416.2,465.9 416.1,465.9 416.1,465.9 416,466 415.9,466 
		415.9,466 415.8,466 415.7,466.1 415.7,466.1 415.6,466.1 415.5,466.1 415.4,466.1 415.3,466.2 415.2,466.2 415.1,466.2 415,466.2 
		414.9,466.2 414.8,466.2 414.7,466.2 414.6,466.3 414.5,466.3 414.3,466.3 414.2,466.3 414.1,466.3 414,466.3 413.8,466.3 
		413.7,466.3 408.3,466.3 408.3,456.1 415.2,456.1 415.3,456.1 415.4,456.1 415.6,456.1 415.7,456.1 415.8,456.1 415.9,456.1 
		416,456.1 416.1,456.1 416.2,456.1 416.3,456.1 416.4,456.1 416.5,456.1 416.6,456.1 416.7,456.1 416.8,456.1 416.9,456.2 
		416.9,456.2 417,456.2 417.1,456.2 417.2,456.2 417.2,456.2 417.3,456.2 417.4,456.2 417.4,456.3 417.5,456.3 417.5,456.3 
		417.6,456.3 417.6,456.3 417.7,456.3 417.7,456.3 417.8,456.3 417.8,456.3 417.8,456.4 417.9,456.4 418,456.4 418,456.4 418,456.5 
		418.1,456.5 418.1,456.5 418.2,456.6 418.2,456.6 418.3,456.6 418.3,456.6 418.4,456.7 418.4,456.7 418.4,456.7 418.5,456.8 
		418.5,456.8 418.6,456.8 418.6,456.9 418.6,456.9 418.7,456.9 418.7,457 418.7,457 418.8,457 418.8,457.1 418.8,457.1 418.8,457.2 
		418.9,457.2 418.9,457.2 418.9,457.3 419,457.3 419,457.4 419,457.4 419,457.4 419.1,457.5 419.1,457.5 419.1,457.6 419.1,457.6 
		419.2,457.7 419.2,457.8 419.2,457.8 419.2,457.9 419.3,458 419.3,458 419.3,458.1 419.3,458.2 419.4,458.3 419.4,458.4 
		419.4,458.5 419.5,458.5 419.5,458.7 419.5,458.7 419.5,458.9 419.6,459 419.6,459.1 419.6,459.2 419.7,459.3 419.7,459.4 
		419.7,459.5 419.7,459.7 419.8,459.8 419.8,459.9 419.8,460.1 419.8,460.2 420,460.9 422,460.9 421.7,453 399.1,453 399.1,455.3 
		400.8,455.3 400.9,455.3 400.9,455.3 401,455.3 401.1,455.3 401.2,455.3 401.3,455.3 401.4,455.3 401.5,455.3 401.5,455.3 
		401.6,455.3 401.7,455.4 401.8,455.4 401.8,455.4 401.9,455.4 402,455.4 402,455.4 402.1,455.5 402.1,455.5 402.2,455.5 
		402.2,455.5 402.3,455.6 402.3,455.6 402.4,455.6 402.4,455.6 402.4,455.7 402.5,455.7 402.5,455.7 402.6,455.8 402.6,455.8 
		402.6,455.8 402.7,455.9 402.7,455.9 402.7,455.9 402.7,455.9 402.7,455.9 402.7,456 402.7,456 402.8,456 402.8,456.1 402.8,456.1 
		402.8,456.2 402.8,456.2 402.8,456.3 402.9,456.4 402.9,456.5 402.9,456.5 402.9,456.6 402.9,456.7 402.9,456.8 402.9,456.9 
		403,457 403,457.1 403,457.3 403,457.4 403,457.5 403,457.6 403,457.8 403,457.9 403,458.1 403,458.2 403,458.4 403,458.5 
		403.1,458.7 403.1,458.9 403.1,478.1 403.1,478.2 403.1,478.3 403,478.5 403,478.6 403,478.7 403,478.8 403,478.9 403,479 
		403,479.1 403,479.2 403,479.3 403,479.4 403,479.5 403,479.6 403,479.7 403,479.8 403,479.9 403,480 403,480 403,480.1 
		402.9,480.2 402.9,480.2 402.9,480.3 402.9,480.4 402.9,480.4 402.9,480.5 402.9,480.5 402.9,480.6 402.9,480.6 402.9,480.6 
		402.9,480.7 402.9,480.7 402.8,480.7 402.8,480.7 402.8,480.8 402.8,480.8 402.8,480.8 402.8,480.8 402.8,480.9 402.8,480.9 
		402.8,480.9 402.7,480.9 402.7,481 402.7,481 402.7,481 402.7,481 402.7,481 402.7,481 402.6,481.1 402.6,481.1 402.6,481.1 
		402.6,481.1 402.6,481.1 402.5,481.2 402.5,481.2 402.5,481.2 402.5,481.2 402.5,481.2 402.4,481.2 402.4,481.3 402.4,481.3 
		402.4,481.3 402.3,481.3 402.3,481.3 402.2,481.4 402.2,481.4 402.2,481.4 402.1,481.4 402.1,481.5 402,481.5 402,481.5 
		401.9,481.5 401.9,481.5 401.8,481.6 401.8,481.6 401.7,481.6 401.7,481.6 401.7,481.6 401.6,481.6 401.5,481.6 401.5,481.7 
		401.5,481.7 401.4,481.7 401.3,481.7 401.3,481.7 401.3,481.7 401.2,481.7 401.2,481.7 401.1,481.7 401.1,481.7 401,481.7 
		401,481.7 400.9,481.7 400.9,481.7 400.8,481.7 400.8,481.7 399.1,481.7 399.1,484 421.5,484 424.3,475.1 422.2,475.1 	"/>
	<path class="st2" d="M516.6,481.7L516.6,481.7l-0.2,0l-0.1,0l-0.1,0l-0.1,0l-0.1,0l-0.1,0l-0.1,0l-0.1,0l-0.1,0l-0.1,0l-0.1,0
		l-0.1,0l-0.1,0l-0.1,0l-0.1,0l-0.1,0l-0.1,0l-0.1,0l-0.1,0l-0.1,0l-0.1,0l-0.1,0l-0.1,0l-0.1,0l0,0l-0.1,0l0,0l-0.1,0l0,0l0,0l0,0
		l0,0l0-0.1l0-0.1l0-0.1l-0.1-0.1l-0.1-0.1l0-0.1l-0.1-0.1l-0.1-0.1l-0.1-0.1l-0.1-0.1l-0.1-0.1l-0.1-0.1l-0.1-0.1l-0.1-0.1
		l-0.1-0.1l-0.1-0.1l-0.1-0.1l-0.1-0.1l-0.1-0.1l-0.1-0.1l-0.1-0.1l-0.1-0.1l-0.1-0.1l-0.1-0.2l-0.1-0.2l-0.1-0.2l-0.1-0.2l-0.1-0.2
		l-0.1-0.2l-0.1-0.2l-9.8-25h-1.6l-9.9,24.8l-0.1,0.2l-0.1,0.2l-0.1,0.2l-0.1,0.2l-0.1,0.2l-0.1,0.2l-0.1,0.2l-0.1,0.2l-0.1,0.2
		l-0.1,0.2l-0.1,0.2l-0.1,0.1l-0.1,0.1l-0.1,0.1l-0.1,0.1l-0.1,0.1l-0.1,0.1l0,0.1l-0.1,0.1l-0.1,0.1l-0.1,0.1l-0.1,0.1l-0.1,0.1
		l-0.1,0.1l-0.1,0.1l-0.1,0.1l-0.1,0.1l-0.1,0.1l-0.1,0.1l-0.1,0.1l0,0.1l-0.1,0.1l0,0l0,0l0,0l0,0l0,0l0,0l0,0l0,0l0,0l0,0l0,0l0,0
		l-0.1,0l0,0l-0.1,0l-0.1,0l-0.1,0l-0.1,0l-0.1,0l-0.1,0l-0.1,0l-0.1,0l-0.1,0l-0.1,0l-0.1,0l-0.1,0l-0.1,0l-0.1,0l-0.1,0l-0.1,0
		l-0.1,0l-0.7,0.1v2.2h10v-2.2l-0.7-0.1l-0.1,0l-0.1,0l-0.1,0l-0.1,0l-0.1,0l-0.1,0l-0.1,0l-0.1,0l-0.1,0l-0.1,0l-0.1,0l-0.1,0
		l-0.1,0l-0.1,0l-0.1,0l-0.1,0l-0.1,0l-0.1,0l-0.1,0l-0.1,0l0,0l0,0l0,0l0,0l0,0l0,0l0,0l0,0l0,0l0,0l0,0l0,0l0,0l0,0l0,0l0,0l0,0
		l0,0l0,0l0,0l0,0l0,0l0,0l0,0l0,0l0,0l0,0l0,0l0,0v0l0,0v0l0,0v0l0,0v0v0l0,0v0v0v0v0v0v0v0v0l0,0v0v0l0,0l0-0.1l0-0.1l0-0.1l0-0.1
		l0-0.1l0-0.1l0-0.1l0-0.1l0-0.1l0-0.1l0-0.1l0-0.1l0-0.1l0-0.1l0-0.1l0-0.1l0-0.1l0-0.1l0-0.1l0-0.1l0-0.1l0-0.1l0-0.1l0-0.1l0-0.1
		l1.7-4.2h9.8l1.5,3.8l0,0.1l0,0.1l0,0.1l0,0.1l0,0.1l0,0.1l0,0.1l0,0.1l0,0.1l0,0.1l0,0.1l0,0.1l0,0.1l0,0.1l0,0.1l0,0.1l0,0.1
		l0,0.1l0,0.1l0,0.1l0,0.1l0,0.1l0,0.1v0.1l0,0.1l0,0.1v0.1l0,0.1v0.1v0l0,0v0v0v0l0,0v0v0v0l0,0v0v0l0,0v0l0,0v0v0l0,0l0,0v0l0,0
		l0,0l0,0l0,0l0,0l0,0l0,0l0,0l0,0l0,0l0,0l0,0l0,0l0,0l0,0l0,0l0,0l0,0l0,0l0,0l0,0l0,0l0,0l0,0l0,0l0,0l-0.1,0l0,0l0,0l-0.1,0
		l-0.1,0l-0.1,0l-0.1,0l-0.1,0l-0.1,0l-0.1,0l-0.1,0l-0.1,0l-0.1,0l-0.1,0l-0.1,0l-0.1,0l-0.1,0l-0.1,0l-0.1,0l-0.1,0l-0.7,0v2.2
		h12.2v-2.2L516.6,481.7z M497.1,471l3.8-9.3l3.6,9.3H497.1z"/>
	<path class="st2" d="M379.8,481.7l-0.1,0l-0.1,0l-0.1,0l-0.1,0l-0.1,0l-0.1,0l-0.1,0l-0.1,0l-0.1,0l-0.1,0l-0.1,0l-0.1,0l-0.1,0
		l-0.1,0l-0.1,0l-0.1,0l-0.1,0l-0.1,0l-0.1,0l-0.1,0l-0.1,0l-0.1,0l-0.1,0l-0.1,0l-0.1,0l-0.1,0l-0.1-0.1l-0.1,0l-0.1-0.1l-0.1-0.1
		l-0.1-0.1l-0.1-0.1l-0.1-0.1l-0.1-0.1l-0.1-0.1l-0.1-0.1l-0.1-0.1l-0.1-0.1l-0.1-0.1l-0.1-0.1l-0.1-0.1l-0.1-0.1l-0.1-0.1l-0.1-0.1
		l-0.1-0.1l-0.1-0.1l-0.1-0.1l-0.1-0.1l-0.1-0.1l-0.1-0.1l-0.1-0.1l-0.1-0.1l-0.1-0.1l-0.1-0.1l-0.1-0.1l-0.1-0.2l-0.1-0.2l-0.1-0.2
		l-0.1-0.2l-0.1-0.2l-0.1-0.2l-0.1-0.2l-5.1-7.6l0.1,0l0.2-0.1l0.2-0.1l0.2-0.1l0.2-0.1l0.2-0.1l0.2-0.1l0.2-0.1l0.2-0.1l0.2-0.1
		l0.2-0.1l0.2-0.1l0.2-0.1l0.2-0.1l0.2-0.1l0.2-0.1l0.2-0.1l0.2-0.1l0.2-0.1l0.1-0.1l0.2-0.1l0.1-0.1l0.1-0.1l0.1-0.1l0.1-0.1
		l0.1-0.1l0.1-0.1l0.1-0.1l0.1-0.1l0.1-0.1l0.1-0.1l0.1-0.1l0.1-0.1l0.1-0.2l0.1-0.1l0.1-0.2l0.1-0.2l0.1-0.2l0.1-0.2l0.1-0.2
		l0.1-0.2l0.1-0.2l0.1-0.2l0.1-0.2l0-0.2l0-0.2l0.1-0.2l0-0.2l0-0.2l0-0.2l0-0.2l0-0.2l0-0.2l0-0.2l0-0.2l0-0.2l0-0.2l0-0.2v-0.2
		v-0.2v-0.2V461l0-0.2l0-0.2l0-0.2l0-0.2l0-0.2l0-0.2l0-0.2l0-0.2l0-0.2l0-0.2l0-0.2l0-0.2l0-0.2l0-0.2l0-0.2l-0.1-0.2l-0.1-0.2
		l-0.1-0.1L374,458l-0.1-0.1l-0.1-0.1l-0.1-0.1l-0.1-0.1l-0.1-0.1l-0.1-0.1l-0.1-0.1l-0.1-0.1l-0.1-0.1l-0.1-0.1l-0.1-0.1l-0.1-0.1
		l-0.1-0.1l-0.1-0.1l-0.1-0.1l-0.1-0.1l-0.1-0.1l-0.1-0.1l-0.1-0.1l-0.1-0.1l-0.1-0.1l-0.1-0.1l-0.1-0.1l-0.1-0.1l-0.1-0.1l-0.1-0.1
		l-0.1-0.1l-0.1-0.1l-0.1-0.1l-0.1-0.1l-0.1-0.1l-0.1-0.1l-0.1-0.1l-0.1-0.1l-0.1-0.1l-0.1-0.1l-0.1-0.1l-0.1-0.1l-0.1-0.1l-0.1-0.1
		l-0.1-0.1l-0.1,0l-0.2,0l-0.1,0l-0.2,0l-0.1,0l-0.2,0l-0.2,0l-0.2,0l-0.2,0l-0.2,0l-0.2,0l-0.2,0l-0.2,0l-0.2,0l-0.2,0l-0.2,0
		l-0.2,0l-0.2,0l-0.2,0l-0.2,0l-0.2,0l-0.2,0l-0.2,0l-0.2,0l-0.2,0l-0.3,0l-0.2,0l-0.2,0l-0.3,0l-0.3,0l-0.3,0h-0.3l-0.3,0h-0.3
		h-10.7v2.3h1.7h0.1h0.1l0.1,0l0.1,0l0.1,0l0.1,0l0.1,0l0.1,0l0.1,0l0.1,0l0.1,0l0.1,0l0.1,0l0.1,0l0.1,0l0.1,0l0,0l0.1,0l0.1,0l0,0
		l0,0l0.1,0l0,0l0,0l0,0l0,0l0,0l0,0l0,0l0,0l0,0l0,0l0,0l0,0l0,0l0,0l0,0l0,0l0,0l0,0.1l0,0.1l0,0.1l0,0.1l0,0.1l0,0.1l0,0.1l0,0.1
		l0,0.1l0,0.1l0,0.1l0,0.1l0,0.1l0,0.1l0,0.1v0.1l0,0.1v0.1l0,0.1v0.1l0,0.1v0.2v0.2l0,0.2v0.2v19.1v0.2l0,0.1v0.1v0.1v0.1l0,0.1
		v0.1l0,0.1v0.1l0,0.1v0.1v0.1l0,0.1l0,0.1l0,0.1l0,0.1l0,0.1l0,0.1l0,0.1l0,0.1l0,0.1l0,0.1l0,0.1l0,0.1l0,0.1l0,0l0,0l0,0v0l0,0
		l0,0l0,0l0,0.1l0,0.1l0,0l0,0l0,0l0,0l0,0l0,0l0,0l0,0l-0.1,0l0,0l0,0l-0.1,0l0,0l-0.1,0l-0.1,0l-0.1,0l-0.1,0l-0.1,0l-0.1,0
		l-0.1,0l-0.1,0l-0.1,0l-0.1,0l-0.1,0l-0.1,0l-0.1,0l-0.1,0l-0.1,0l-0.1,0h-0.1h-1.7v2.3H365v-2.3h-1.8h-0.1l-0.1,0H363l-0.1,0
		l-0.1,0l-0.1,0l-0.1,0l-0.1,0l-0.1,0l-0.1,0l-0.1,0l-0.1,0l-0.1,0l-0.1,0l-0.1,0l-0.1,0l-0.1,0l-0.1,0l0,0l0,0l-0.1,0l0,0l0,0l0,0
		l0,0l0,0l0,0l0,0l0,0l0,0l0,0l0,0l0,0l0,0l0,0l0,0l0,0l0,0l0,0l0-0.1l0-0.1l0-0.1l0-0.1l0-0.1l0-0.1l0-0.1l0-0.1l0-0.1l0-0.1l0-0.1
		l0-0.1l0-0.1l0-0.1l0-0.1l0-0.1l0-0.1l0-0.1V479l0-0.1v-0.2l0-0.2v-0.2v-0.2v-0.2v-7.8l0,0h0h0h0h0h0h0h0h0h0h0h0l0,0h0h0h0h0h0h0
		h0h0h0h0h0h0h0h0h0l0,0h0h0h0h0h0h0h0h0l0,0h0.1h0h0h0.1h0l0.1,0h0.1h0h0.1l0.1,0h0.1h0.1l0.1,0h0.1h0.1l0.1,0h0.1h0l9.3,13.8h8.4
		v-2.2l-0.7-0.1L379.8,481.7z M368.3,464l-0.1,0.1l-0.1,0.1l-0.1,0.1l-0.1,0.1l-0.1,0.1l-0.1,0.1l-0.1,0.1l-0.1,0.1l-0.1,0.1
		l-0.1,0.1l-0.1,0.1l-0.1,0.1l-0.1,0.1l-0.1,0.1l-0.1,0.1l-0.1,0.1l-0.1,0.1l-0.1,0.1l-0.1,0.1l-0.1,0.1l-0.1,0.1l-0.1,0.1l-0.1,0.1
		l-0.1,0.1l-0.2,0.1l-0.2,0.1l-0.1,0.1l-0.2,0.1l-0.2,0.1l-0.2,0.1l-0.2,0.1l-0.2,0l-0.2,0.1l-0.2,0l-0.2,0l-0.2,0l-0.2,0l-0.2,0
		l-0.2,0l-0.2,0l-0.2,0l-0.2,0l-0.2,0l-0.2,0l-0.2,0l-0.2,0h-0.2h0h0h0h0h0h0h0h0h0h0h0h0h0h0l0,0h0h0l0,0h0h0h0h0h0h0h0h0h0h0l0,0
		h0h0v-11l0,0l0.1,0l0.1,0l0.1,0l0.1,0l0.1,0l0.1,0l0.1,0l0.1,0l0.1,0l0.1,0l0.1,0l0.1,0l0.1,0l0.1,0l0.1,0l0.1,0l0.1,0l0.1,0l0.1,0
		l0.1,0l0.1,0l0.1,0l0.1,0h0.1h0.1l0.1,0h0.1l0.1,0l0.2,0l0.1,0l0.1,0l0.1,0l0.1,0l0.1,0l0.1,0l0.1,0l0.1,0l0.1,0l0.1,0l0.1,0l0.1,0
		l0.1,0l0.1,0l0.1,0.1l0.1,0.1l0.1,0.1l0.1,0.1l0.1,0.1l0.1,0.1l0.1,0.1l0.1,0.1l0.1,0.1l0.1,0.1l0.1,0.1l0.1,0.1l0.1,0.1l0.1,0.1
		l0.1,0.1l0.1,0.1l0.1,0.1l0.1,0.1l0.1,0.1l0.1,0.1l0.1,0.1l0.1,0.1l0.1,0.1l0.1,0.1l0.1,0.1l0.1,0.1l0.1,0.1l0.1,0.1l0,0.1l0,0.1
		l0,0.1l0,0.1l0,0.1l0,0.1l0,0.1l0,0.1l0,0.1l0,0.1l0,0.1l0,0.1l0,0.1l0,0.1l0,0.1l0,0.2l0,0.2v0.2l0,0.2v0.2v0.2l0,0.2v0.2l0,0.2
		l0,0.1l0,0.1l0,0.1l0,0.1l0,0.1l0,0.1l0,0.1l0,0.1l0,0.1l0,0.1l0,0.1l-0.1,0.1L368.3,464z"/>
	<polygon class="st2" points="383.2,455.3 384.9,455.3 384.9,455.3 385,455.3 385,455.3 385.1,455.3 385.1,455.3 385.2,455.3 
		385.2,455.3 385.3,455.3 385.3,455.3 385.4,455.3 385.4,455.3 385.4,455.3 385.5,455.3 385.5,455.4 385.6,455.4 385.6,455.4 
		385.7,455.4 385.7,455.4 385.8,455.4 385.8,455.4 385.9,455.5 385.9,455.5 386,455.5 386,455.5 386.1,455.5 386.1,455.6 
		386.2,455.6 386.2,455.6 386.3,455.6 386.3,455.6 386.4,455.7 386.4,455.7 386.4,455.7 386.4,455.7 386.5,455.7 386.5,455.8 
		386.5,455.8 386.5,455.8 386.6,455.8 386.6,455.8 386.6,455.9 386.6,455.9 386.7,455.9 386.7,455.9 386.7,455.9 386.7,456 
		386.7,456 386.8,456 386.8,456 386.8,456 386.8,456 386.8,456.1 386.8,456.1 386.8,456.1 386.9,456.1 386.9,456.1 386.9,456.2 
		386.9,456.2 386.9,456.2 386.9,456.2 386.9,456.2 386.9,456.2 386.9,456.3 386.9,456.3 386.9,456.3 386.9,456.3 387,456.4 
		387,456.4 387,456.4 387,456.5 387,456.5 387,456.6 387,456.7 387,456.7 387,456.8 387,456.8 387.1,456.9 387.1,457 387.1,457.1 
		387.1,457.2 387.1,457.3 387.1,457.3 387.1,457.4 387.1,457.5 387.1,457.6 387.1,457.7 387.1,457.9 387.1,458 387.1,458.1 
		387.1,458.2 387.1,458.3 387.1,458.4 387.1,458.6 387.1,458.7 387.1,458.8 387.1,459 387.1,478.1 387.1,478.2 387.1,478.4 
		387.1,478.5 387.1,478.7 387.1,478.8 387.1,478.9 387.1,479.1 387.1,479.2 387.1,479.3 387.1,479.5 387.1,479.6 387.1,479.7 
		387.1,479.8 387.1,479.9 387,480 387,480.1 387,480.2 387,480.3 387,480.4 387,480.4 387,480.5 386.9,480.6 386.9,480.6 
		386.9,480.7 386.9,480.8 386.9,480.8 386.9,480.8 386.8,480.9 386.8,480.9 386.8,480.9 386.8,481 386.8,481 386.8,481 386.7,481.1 
		386.7,481.1 386.6,481.1 386.6,481.2 386.6,481.2 386.5,481.3 386.5,481.3 386.4,481.3 386.4,481.4 386.3,481.4 386.3,481.4 
		386.2,481.5 386.2,481.5 386.1,481.5 386.1,481.5 386,481.6 386,481.6 385.9,481.6 385.8,481.6 385.8,481.6 385.7,481.7 
		385.6,481.7 385.5,481.7 385.5,481.7 385.4,481.7 385.3,481.7 385.2,481.7 385.1,481.7 385,481.7 385,481.7 384.9,481.7 
		383.2,481.7 383.2,484 396.4,484 396.4,481.7 394.7,481.7 394.6,481.7 394.6,481.7 394.5,481.7 394.5,481.7 394.4,481.7 
		394.4,481.7 394.3,481.7 394.3,481.7 394.3,481.7 394.2,481.7 394.1,481.7 394.1,481.7 394.1,481.7 394,481.7 394,481.7 
		393.9,481.6 393.9,481.6 393.8,481.6 393.8,481.6 393.7,481.6 393.7,481.6 393.6,481.5 393.6,481.5 393.5,481.5 393.5,481.5 
		393.5,481.5 393.4,481.4 393.4,481.4 393.3,481.4 393.3,481.4 393.2,481.3 393.2,481.3 393.2,481.3 393.1,481.3 393.1,481.3 
		393.1,481.2 393,481.2 393,481.2 393,481.2 393,481.2 392.9,481.1 392.9,481.1 392.9,481.1 392.9,481.1 392.8,481.1 392.8,481 
		392.8,481 392.8,481 392.8,481 392.8,481 392.8,481 392.7,480.9 392.7,480.9 392.7,480.9 392.7,480.9 392.7,480.9 392.7,480.9 
		392.7,480.8 392.7,480.8 392.7,480.8 392.6,480.8 392.6,480.8 392.6,480.8 392.6,480.7 392.6,480.7 392.6,480.7 392.6,480.7 
		392.6,480.6 392.6,480.6 392.6,480.5 392.6,480.5 392.5,480.4 392.5,480.4 392.5,480.3 392.5,480.2 392.5,480.2 392.5,480.1 
		392.5,480 392.5,479.9 392.5,479.8 392.5,479.8 392.5,479.7 392.4,479.6 392.4,479.5 392.4,479.4 392.4,479.3 392.4,479.2 
		392.4,479 392.4,478.9 392.4,478.8 392.4,478.7 392.4,478.6 392.4,478.5 392.4,478.3 392.4,478.2 392.4,478.1 392.4,459 
		392.4,458.8 392.4,458.6 392.4,458.5 392.4,458.3 392.4,458.2 392.4,458.1 392.4,457.9 392.4,457.8 392.4,457.7 392.5,457.6 
		392.5,457.4 392.5,457.3 392.5,457.2 392.5,457.1 392.5,457 392.5,456.9 392.5,456.8 392.6,456.7 392.6,456.7 392.6,456.6 
		392.6,456.5 392.6,456.4 392.6,456.4 392.7,456.3 392.7,456.3 392.7,456.2 392.7,456.2 392.7,456.1 392.7,456.1 392.8,456.1 
		392.8,456.1 392.8,456 392.8,456 392.8,456 392.9,455.9 392.9,455.9 393,455.8 393,455.8 393,455.8 393.1,455.7 393.1,455.7 
		393.2,455.7 393.2,455.6 393.3,455.6 393.3,455.6 393.4,455.5 393.4,455.5 393.5,455.5 393.5,455.5 393.6,455.4 393.7,455.4 
		393.7,455.4 393.8,455.4 393.9,455.4 393.9,455.3 394,455.3 394.1,455.3 394.2,455.3 394.3,455.3 394.3,455.3 394.4,455.3 
		394.5,455.3 394.6,455.3 394.7,455.3 396.4,455.3 396.4,453 383.2,453 	"/>
</g>
</svg>
